<?xml version="1.0" encoding="UTF-8" standalone="no"?>
<svg width="171px" height="53px" viewBox="0 0 171 53" version="1.1" xmlns="http://www.w3.org/2000/svg" xmlns:xlink="http://www.w3.org/1999/xlink" xmlns:sketch="http://www.bohemiancoding.com/sketch/ns">
    <!-- Generator: Sketch 3.2 (9961) - http://www.bohemiancoding.com/sketch -->
    <title>Download_on_the_App_Store_Badge_FR_135x40 2</title>
    <desc>Created with Sketch.</desc>
    <defs></defs>
    <g id="Page-1" stroke="none" stroke-width="1" fill="none" fill-rule="evenodd" sketch:type="MSPage">
        <g id="Download_on_the_App_Store_Badge_FR_135x40-2" sketch:type="MSLayerGroup" transform="translate(1.000000, 1.000000)" fill="#FFFFFF">
            <g id="Group" sketch:type="MSShapeGroup">
                <path d="M163.027415,51 L5.95881481,51 C2.69523704,51 0,48.2868 0,44.965425 L0,6.02565 C0,2.703 2.69523704,0 5.95881481,0 L163.026163,0 C166.288489,0 169,2.703 169,6.02565 L169,44.965425 C169,48.2868 166.288489,51 163.027415,51 L163.027415,51 L163.027415,51 Z" id="Shape" stroke="#FFFFFF" fill-opacity="0.1"></path>
                <g id="Shape">
                    <path d="M37.7546,25.2246 C37.7182963,21.115275 41.058237,19.116075 41.210963,19.023 C39.3194148,16.214175 36.3875778,15.8304 35.3573037,15.7998 C32.8949111,15.535875 30.5063778,17.300475 29.2520222,17.300475 C27.9726296,17.300475 26.0410222,15.8253 23.9591926,15.86865 C21.2802296,15.910725 18.7740222,17.49045 17.3994889,19.94355 C14.5627926,24.945375 16.6784222,32.29575 19.3961926,36.338775 C20.7557037,38.31885 22.3443037,40.5297 24.4236296,40.451925 C26.4578889,40.3665 27.217763,39.131025 29.6726444,39.131025 C32.1049926,39.131025 32.8185481,40.451925 34.9391852,40.4022 C37.1224148,40.3665 38.4969481,38.4132 39.8088889,36.415275 C41.379963,34.145775 42.0108963,31.9107 42.0359333,31.79595 C41.9858593,31.7781 37.7959111,30.149925 37.7546,25.2246 L37.7546,25.2246 Z"></path>
                    <path d="M33.7486741,13.14015 C34.8427926,11.746575 35.5914,9.85065 35.3835926,7.926675 C33.8,7.998075 31.8183185,9.041025 30.6791333,10.405275 C29.6701407,11.606325 28.7688074,13.574925 29.0016519,15.426225 C30.7805333,15.561375 32.6069852,14.51205 33.7486741,13.14015 L33.7486741,13.14015 Z"></path>
                </g>
                <g id="Shape">
                    <path d="M56.5524074,40.1676 L54.1188074,40.1676 L54.1188074,23.89605 L56.5524074,23.89605 L56.5524074,40.1676 L56.5524074,40.1676 Z"></path>
                    <path d="M62.9068074,24.2862 C62.2608519,26.5965 61.4947185,28.4937 60.6084074,29.9778 L59.0986741,30.13845 C59.7596519,28.30245 60.2328519,26.4282 60.5182741,24.5157 L62.9068074,24.2862 L62.9068074,24.2862 Z"></path>
                    <path d="M74.8269407,40.1676 L72.2356074,40.1676 L70.8160074,35.624775 L65.8812074,35.624775 L64.5292074,40.1676 L62.0054741,40.1676 L66.8952074,24.6993 L69.9146741,24.6993 L74.8269407,40.1676 L74.8269407,40.1676 Z M70.3878741,33.717375 L69.1034741,29.678175 C68.9682741,29.26635 68.7128963,28.293525 68.3373407,26.763525 L68.2922741,26.763525 C68.1420519,27.421425 67.9016963,28.392975 67.5712074,29.678175 L66.3093407,33.717375 L70.3878741,33.717375 L70.3878741,33.717375 Z"></path>
                    <path d="M87.3992889,34.451775 C87.3992889,36.348975 86.8960444,37.848375 85.8883037,38.949975 C84.9869704,39.93045 83.8678148,40.418775 82.530837,40.418775 C81.0887037,40.418775 80.0521704,39.890925 79.421237,38.835225 L79.3761704,38.835225 L79.3761704,44.710425 L76.9425704,44.710425 L76.9425704,32.68335 C76.9425704,31.488675 76.9125259,30.26595 76.852437,29.01135 L78.9931037,29.01135 L79.1283037,30.779775 L79.1733704,30.779775 C79.9845704,29.4474 81.2163926,28.783125 82.868837,28.783125 C84.1607481,28.783125 85.2385926,29.303325 86.1023704,30.343725 C86.9674,31.3854 87.3992889,32.753475 87.3992889,34.451775 L87.3992889,34.451775 Z M84.9206222,34.54485 C84.9206222,33.45855 84.6802667,32.5635 84.1995556,31.860975 C83.6737778,31.126575 82.9677333,30.759375 82.0814222,30.759375 C81.4805333,30.759375 80.9347259,30.9621 80.4477556,31.368825 C79.9595333,31.773 79.6403111,32.304675 79.4900889,32.962575 C79.4149778,33.268575 79.3774222,33.521025 79.3774222,33.719925 L79.3774222,35.578875 C79.3774222,36.39105 79.6215333,37.075725 80.1097556,37.6329 C80.5979778,38.19135 81.2326667,38.470575 82.0138222,38.470575 C82.9301778,38.470575 83.6437333,38.111025 84.1544889,37.391925 C84.6652444,36.67155 84.9206222,35.724225 84.9206222,34.54485 L84.9206222,34.54485 Z"></path>
                    <path d="M99.9966741,34.451775 C99.9966741,36.348975 99.4934296,37.848375 98.4856889,38.949975 C97.5856074,39.93045 96.4664519,40.418775 95.1282222,40.418775 C93.6860889,40.418775 92.6495556,39.890925 92.0186222,38.835225 L91.9748074,38.835225 L91.9748074,44.710425 L89.5399556,44.710425 L89.5399556,32.68335 C89.5399556,31.488675 89.511163,30.26595 89.4523259,29.01135 L91.5917407,29.01135 L91.7256889,30.779775 L91.7720074,30.779775 C92.5832074,29.4474 93.8137778,28.783125 95.4662222,28.783125 C96.7593852,28.783125 97.8359778,29.303325 98.7010074,30.343725 C99.5635333,31.3854 99.9966741,32.753475 99.9966741,34.451775 L99.9966741,34.451775 Z M97.5167556,34.54485 C97.5167556,33.45855 97.2776519,32.5635 96.7956889,31.860975 C96.2699111,31.126575 95.5638667,30.759375 94.6788074,30.759375 C94.0779185,30.759375 93.5321111,30.9621 93.0451407,31.368825 C92.5556667,31.773 92.2364444,32.304675 92.0862222,32.962575 C92.0098593,33.268575 91.9735556,33.521025 91.9735556,33.719925 L91.9735556,35.578875 C91.9735556,36.39105 92.2176667,37.075725 92.704637,37.6329 C93.1941111,38.19135 93.8288,38.470575 94.6087037,38.470575 C95.5250593,38.470575 96.2398667,38.111025 96.7506222,37.391925 C97.2601259,36.67155 97.5167556,35.724225 97.5167556,34.54485 L97.5167556,34.54485 Z"></path>
                    <path d="M114.077504,35.831325 C114.077504,37.14585 113.628089,38.21685 112.730511,39.044325 C111.740296,39.947025 110.360756,40.398375 108.593141,40.398375 C106.95697,40.398375 105.646281,40.077075 104.656067,39.434475 L105.218148,37.368975 C106.284726,38.02815 107.457711,38.355825 108.7346,38.355825 C109.650956,38.355825 110.365763,38.14545 110.876519,37.723425 C111.387274,37.302675 111.643904,36.739125 111.643904,36.03405 C111.643904,35.405475 111.433593,34.877625 111.01297,34.44795 C110.592348,34.01955 109.892563,33.620475 108.91737,33.252 C106.257185,32.240925 104.926467,30.761925 104.926467,28.816275 C104.926467,27.543825 105.393407,26.50215 106.324785,25.689975 C107.256163,24.8778 108.495496,24.471075 110.044037,24.471075 C111.426081,24.471075 112.57403,24.715875 113.491637,25.205475 L112.883237,27.2238 C112.02697,26.7495 111.056785,26.51235 109.976437,26.51235 C109.12017,26.51235 108.45043,26.72655 107.97097,27.15495 C107.56537,27.53745 107.36257,28.0041 107.36257,28.556175 C107.36257,29.1669 107.595415,29.6718 108.062356,30.070875 C108.465452,30.438075 109.201541,30.835875 110.270622,31.264275 C111.576304,31.799775 112.537726,32.427075 113.153637,33.14745 C113.769548,33.867825 114.077504,34.75905 114.077504,35.831325 L114.077504,35.831325 Z"></path>
                    <path d="M122.121904,30.87285 L119.441689,30.87285 L119.441689,36.28905 C119.441689,37.66605 119.913637,38.35455 120.860037,38.35455 C121.295681,38.35455 121.657467,38.3163 121.942889,38.2398 L122.009237,40.1217 C121.529778,40.306575 120.898844,40.3971 120.116437,40.3971 C119.155015,40.3971 118.405156,40.100025 117.864356,39.50205 C117.321052,38.90535 117.053156,37.904475 117.053156,36.496875 L117.053156,30.874125 L115.452037,30.874125 L115.452037,29.015175 L117.053156,29.015175 L117.053156,26.972625 L119.441689,26.238225 L119.441689,29.015175 L122.121904,29.015175 L122.121904,30.87285 L122.121904,30.87285 Z"></path>
                    <path d="M134.222304,34.500225 C134.222304,36.21255 133.740341,37.62015 132.78017,38.723025 C131.77243,39.855225 130.437956,40.421325 128.770489,40.421325 C127.161859,40.421325 125.879963,39.878175 124.927304,38.791875 C123.973393,37.705575 123.496437,36.336225 123.496437,34.683825 C123.496437,32.954925 123.988415,31.539675 124.973622,30.438075 C125.956326,29.336475 127.282037,28.785675 128.949504,28.785675 C130.558133,28.785675 131.848793,29.328825 132.825237,30.41385 C133.755363,31.46955 134.222304,32.83125 134.222304,34.500225 L134.222304,34.500225 Z M131.69857,34.579275 C131.69857,33.55035 131.480748,32.669325 131.043852,31.932375 C130.533096,31.0437 129.807022,30.59745 128.858119,30.59745 C127.882926,30.59745 127.139326,31.0437 126.62857,31.932375 C126.192926,32.669325 125.976356,33.56565 125.976356,34.6239 C125.976356,35.6541 126.194178,36.535125 126.62857,37.2708 C127.154348,38.16075 127.890437,38.607 128.836837,38.607 C129.768215,38.607 130.496793,38.154375 131.02257,37.249125 C131.470733,36.496875 131.69857,35.606925 131.69857,34.579275 L131.69857,34.579275 Z"></path>
                    <path d="M142.129,31.19415 C141.889896,31.14825 141.634519,31.1253 141.364119,31.1253 C140.507852,31.1253 139.845622,31.45425 139.381185,32.110875 C138.975585,32.69355 138.772785,33.42795 138.772785,34.31535 L138.772785,40.1676 L136.340437,40.1676 L136.36297,32.52525 C136.36297,31.24005 136.334178,30.0696 136.272837,29.0139 L138.392222,29.0139 L138.479852,31.14825 L138.548704,31.14825 C138.805333,30.41385 139.20843,29.826075 139.766756,29.3811 C140.307556,28.9833 140.893422,28.7844 141.524356,28.7844 C141.749689,28.7844 141.952489,28.7997 142.130252,28.829025 L142.130252,31.19415 L142.129,31.19415 Z"></path>
                    <path d="M153.013852,34.0629 C153.013852,34.507875 152.982556,34.88145 152.923719,35.18745 L145.622919,35.18745 C145.651711,36.28905 146.007237,37.13055 146.681985,37.71195 C147.297896,38.23215 148.095326,38.490975 149.070519,38.490975 C150.150867,38.490975 151.136074,38.315025 152.021133,37.9644 L152.405452,39.68565 C151.368919,40.14465 150.143356,40.37415 148.732519,40.37415 C147.033756,40.37415 145.700533,39.8667 144.732852,38.847975 C143.76517,37.830525 143.280704,36.465 143.280704,34.7514 C143.280704,33.0684 143.730119,31.66845 144.6302,30.55155 C145.579104,29.356875 146.854741,28.762725 148.462119,28.762725 C150.039452,28.762725 151.23497,29.35815 152.04617,30.55155 C152.692126,31.50015 153.013852,32.6706 153.013852,34.0629 L153.013852,34.0629 Z M150.69417,33.4203 C150.709193,32.6859 150.550207,32.052225 150.219719,31.51545 C149.799096,30.82695 149.153141,30.4827 148.2806,30.4827 C147.485674,30.4827 146.84097,30.8193 146.343985,31.491225 C145.938385,32.028 145.69803,32.6706 145.622919,33.4203 L150.69417,33.4203 L150.69417,33.4203 Z"></path>
                </g>
                <g id="Shape">
                    <path d="M59.8885926,9.91695 L57.5451259,9.91695 L57.5451259,17.127075 L56.2331852,17.127075 L56.2331852,9.91695 L53.902237,9.91695 L53.902237,8.7924 L59.8885926,8.7924 L59.8885926,9.91695 L59.8885926,9.91695 Z"></path>
                    <path d="M66.324363,13.837575 C66.324363,14.077275 66.306837,14.278725 66.2755407,14.4432 L62.3409704,14.4432 C62.3572444,15.03735 62.5462741,15.489975 62.910563,15.803625 C63.2435556,16.084125 63.6716889,16.224375 64.1974667,16.224375 C64.7808296,16.224375 65.3116148,16.130025 65.7885704,15.94005 L65.9938741,16.86825 C65.4355481,17.1156 64.7758222,17.239275 64.0146963,17.239275 C63.1008444,17.239275 62.3810296,16.96515 61.8590074,16.4169 C61.3369852,15.86865 61.0766,15.132975 61.0766,14.209875 C61.0766,13.30335 61.3182074,12.54855 61.8051778,11.94675 C62.3146815,11.30415 63.0019481,10.98285 63.8682296,10.98285 C64.718237,10.98285 65.3616889,11.30415 65.7985852,11.94675 C66.1491037,12.45675 66.324363,13.087875 66.324363,13.837575 L66.324363,13.837575 Z M65.0725111,13.49205 C65.0812741,13.095525 64.9948963,12.753825 64.8183852,12.465675 C64.5905481,12.09465 64.2437852,11.9085 63.7743407,11.9085 C63.3449556,11.9085 62.9969407,12.08955 62.7290444,12.452925 C62.5112222,12.74235 62.3822815,13.087875 62.3409704,13.49205 L65.0725111,13.49205 L65.0725111,13.49205 Z M65.6083037,8.5935 L64.1386296,10.38615 L63.2272815,10.38615 L64.2838444,8.5935 L65.6083037,8.5935 L65.6083037,8.5935 Z"></path>
                    <path d="M69.5403704,17.127075 L68.2284296,17.127075 L68.2284296,8.3589 L69.5403704,8.3589 L69.5403704,17.127075 L69.5403704,17.127075 Z"></path>
                    <path d="M76.7297556,13.837575 C76.7297556,14.077275 76.7122296,14.278725 76.6809333,14.4432 L72.746363,14.4432 C72.762637,15.03735 72.9516667,15.489975 73.3159556,15.803625 C73.6489481,16.084125 74.0770815,16.224375 74.6028593,16.224375 C75.1862222,16.224375 75.7170074,16.130025 76.193963,15.94005 L76.3992667,16.86825 C75.8409407,17.1156 75.1812148,17.239275 74.4200889,17.239275 C73.506237,17.239275 72.7864222,16.96515 72.2644,16.4169 C71.7423778,15.86865 71.4819926,15.132975 71.4819926,14.209875 C71.4819926,13.30335 71.7236,12.54855 72.2105704,11.94675 C72.7200741,11.30415 73.4073407,10.98285 74.2736222,10.98285 C75.1236296,10.98285 75.7670815,11.30415 76.2039778,11.94675 C76.5557481,12.45675 76.7297556,13.087875 76.7297556,13.837575 L76.7297556,13.837575 Z M75.4779037,13.49205 C75.4866667,13.095525 75.4002889,12.753825 75.2237778,12.465675 C74.9959407,12.09465 74.6491778,11.9085 74.1797333,11.9085 C73.7503481,11.9085 73.4023333,12.08955 73.134437,12.452925 C72.9166148,12.74235 72.7876741,13.087875 72.746363,13.49205 L75.4779037,13.49205 L75.4779037,13.49205 Z M76.0136963,8.5935 L74.5440222,10.38615 L73.6339259,10.38615 L74.6904889,8.5935 L76.0136963,8.5935 L76.0136963,8.5935 Z"></path>
                    <path d="M82.8488074,11.277375 L82.5946815,12.291 C82.2616889,12.126525 81.8823778,12.04365 81.4529926,12.04365 C80.8783926,12.04365 80.4227185,12.24 80.0859704,12.631425 C79.7504741,13.02285 79.5827259,13.5201 79.5827259,14.1219 C79.5827259,14.75685 79.759237,15.2592 80.1110074,15.630225 C80.4627778,16.00125 80.9109407,16.1874 81.4529926,16.1874 C81.8573407,16.1874 82.2541778,16.1058 82.6422519,15.94005 L82.8250222,16.9422 C82.395637,17.14875 81.854837,17.252025 81.1976148,17.252025 C80.2987852,17.252025 79.5827259,16.974075 79.0481852,16.4169 C78.5136444,15.859725 78.247,15.1164 78.247,14.184375 C78.247,13.253625 78.5336741,12.48735 79.1082741,11.89065 C79.6828741,11.29395 80.4552667,10.994325 81.4279556,10.994325 C81.9787704,10.99305 82.4532222,11.0874 82.8488074,11.277375 L82.8488074,11.277375 Z"></path>
                    <path d="M89.7690444,17.127075 L88.4583556,17.127075 L88.4583556,13.710075 C88.4583556,12.6327 88.0627704,12.093375 87.2678444,12.093375 C86.6619481,12.093375 86.2438296,12.40575 86.0172444,13.0305 C85.9771852,13.161825 85.9559037,13.322475 85.9559037,13.511175 L85.9559037,17.1258 L84.643963,17.1258 L84.643963,8.3589 L85.9559037,8.3589 L85.9559037,11.981175 L85.9809407,11.981175 C86.3953037,11.322 86.9836741,10.99305 87.7548148,10.99305 C88.2981185,10.99305 88.7450296,11.1741 89.1018074,11.537475 C89.5462148,11.9901 89.7690444,12.6633 89.7690444,13.55325 L89.7690444,17.127075 L89.7690444,17.127075 Z"></path>
                    <path d="M96.4977481,17.127075 L95.3197556,17.127075 L95.2221111,16.43475 L95.1858074,16.43475 C94.7827111,16.986825 94.2081111,17.2635 93.4620074,17.2635 C92.9049333,17.2635 92.4542667,17.081175 92.1150148,16.719075 C91.8070593,16.390125 91.6530815,15.98085 91.6530815,15.495075 C91.6530815,14.760675 91.9535259,14.20095 92.5581704,13.81335 C93.161563,13.42575 94.0103185,13.235775 95.1031852,13.2447 L95.1031852,13.1325 C95.1031852,12.340725 94.6950815,11.945475 93.8776222,11.945475 C93.2955111,11.945475 92.7822519,12.09465 92.3390963,12.39045 L92.0724519,11.51325 C92.620763,11.167725 93.2980148,10.994325 94.0966963,10.994325 C95.6389778,10.994325 96.4126222,11.823075 96.4126222,13.480575 L96.4126222,15.693975 C96.4126222,16.2945 96.4414148,16.772625 96.4977481,17.127075 L96.4977481,17.127075 Z M95.1357333,15.061575 L95.1357333,14.13465 C93.6885926,14.10915 92.9650222,14.513325 92.9650222,15.3459 C92.9650222,15.65955 93.0476444,15.89415 93.2166444,16.050975 C93.3856444,16.2078 93.600963,16.285575 93.8575926,16.285575 C94.1455185,16.285575 94.4146667,16.1925 94.6600296,16.007625 C94.9066444,15.821475 95.0581185,15.5856 95.1144519,15.296175 C95.1282222,15.23115 95.1357333,15.1521 95.1357333,15.061575 L95.1357333,15.061575 Z"></path>
                    <path d="M101.828133,12.292275 C101.697941,12.266775 101.561489,12.2553 101.415022,12.2553 C100.955593,12.2553 100.598815,12.432525 100.345941,12.786975 C100.128119,13.100625 100.017956,13.495875 100.017956,13.974 L100.017956,17.12835 L98.7085185,17.12835 L98.721037,13.0101 C98.721037,12.317775 98.7035111,11.68665 98.6722148,11.118 L99.8139037,11.118 L99.8627259,12.26805 L99.8990296,12.26805 C100.035481,11.871525 100.253304,11.55405 100.553748,11.315625 C100.844178,11.101425 101.159644,10.994325 101.500148,10.994325 C101.62283,10.994325 101.732993,11.001975 101.828133,11.01855 L101.828133,12.292275 L101.828133,12.292275 Z"></path>
                    <path d="M108.675763,11.116725 C108.644467,11.603775 108.626941,12.172425 108.626941,12.82395 L108.626941,16.26135 C108.626941,17.555475 108.34277,18.463275 107.778185,18.9822 C107.259919,19.460325 106.531341,19.69875 105.592452,19.69875 C104.773741,19.69875 104.112763,19.541925 103.612022,19.228275 L103.91497,18.2019 C104.409452,18.506625 104.96903,18.659625 105.592452,18.659625 C106.749163,18.659625 107.32877,18.024675 107.32877,16.754775 L107.32877,16.173375 L107.303733,16.173375 C106.939444,16.7841 106.359837,17.088825 105.567415,17.088825 C104.853859,17.088825 104.266741,16.813425 103.807311,16.260075 C103.345378,15.708 103.115037,15.00675 103.115037,14.1576 C103.115037,13.1937 103.381681,12.4134 103.91497,11.820525 C104.409452,11.26845 105.012844,10.991775 105.723896,10.991775 C106.526333,10.991775 107.100933,11.30925 107.4502,11.9442 L107.472733,11.9442 L107.521556,11.11545 L108.675763,11.11545 L108.675763,11.116725 Z M107.317504,14.5554 L107.317504,13.49205 C107.317504,13.087875 107.192319,12.74235 106.945704,12.452925 C106.696585,12.1635 106.371104,12.0207 105.963,12.0207 C105.516089,12.0207 105.149296,12.2094 104.860119,12.58935 C104.572193,12.9693 104.426978,13.475475 104.426978,14.110425 C104.426978,14.688 104.560926,15.153375 104.830074,15.507825 C105.10423,15.895425 105.482289,16.089225 105.961748,16.089225 C106.254681,16.089225 106.516319,16.00125 106.749163,15.824025 C106.982007,15.6468 107.144748,15.405825 107.243644,15.1011 C107.292467,14.95065 107.317504,14.768325 107.317504,14.5554 L107.317504,14.5554 Z"></path>
                    <path d="M115.816326,13.837575 C115.816326,14.077275 115.7988,14.278725 115.767504,14.4432 L111.832933,14.4432 C111.850459,15.03735 112.038237,15.489975 112.402526,15.803625 C112.735519,16.084125 113.164904,16.224375 113.690681,16.224375 C114.272793,16.224375 114.803578,16.130025 115.281785,15.94005 L115.487089,16.86825 C114.927511,17.1156 114.269037,17.239275 113.506659,17.239275 C112.592807,17.239275 111.872993,16.96515 111.352222,16.4169 C110.828948,15.86865 110.569815,15.132975 110.569815,14.209875 C110.569815,13.30335 110.811422,12.54855 111.298393,11.94675 C111.806644,11.30415 112.493911,10.98285 113.361444,10.98285 C114.2102,10.98285 114.854904,11.30415 115.290548,11.94675 C115.642319,12.45675 115.816326,13.087875 115.816326,13.837575 L115.816326,13.837575 Z M114.564474,13.49205 C114.574489,13.095525 114.488111,12.753825 114.310348,12.465675 C114.082511,12.09465 113.735748,11.9085 113.266304,11.9085 C112.83817,11.9085 112.488904,12.08955 112.222259,12.452925 C112.004437,12.74235 111.875496,13.087875 111.832933,13.49205 L114.564474,13.49205 L114.564474,13.49205 Z"></path>
                    <path d="M120.842511,12.292275 C120.712319,12.266775 120.575867,12.2553 120.4294,12.2553 C119.967467,12.2553 119.613193,12.432525 119.360319,12.786975 C119.142496,13.100625 119.032333,13.495875 119.032333,13.974 L119.032333,17.12835 L117.719141,17.12835 L117.731659,13.0101 C117.731659,12.317775 117.716637,11.68665 117.685341,11.118 L118.824526,11.118 L118.873348,12.26805 L118.909652,12.26805 C119.046104,11.871525 119.26643,11.55405 119.56437,11.315625 C119.857304,11.101425 120.17277,10.994325 120.513274,10.994325 C120.633452,10.994325 120.743615,11.001975 120.841259,11.01855 L120.841259,12.292275 L120.842511,12.292275 Z"></path>
                    <path d="M131.310496,17.127075 L130.14377,17.127075 L130.08243,16.1619 L130.046126,16.1619 C129.674326,16.8963 129.043393,17.2635 128.153326,17.2635 C127.43977,17.2635 126.850148,16.979175 126.380704,16.410525 C125.911259,15.841875 125.677163,15.10365 125.677163,14.197125 C125.677163,13.2243 125.931289,12.43635 126.439541,11.83455 C126.934022,11.27355 127.542422,10.99305 128.260985,10.99305 C129.055911,10.99305 129.610481,11.264625 129.925948,11.80905 L129.950985,11.80905 L129.950985,8.3589 L131.261674,8.3589 L131.261674,15.507825 C131.261674,16.09305 131.277948,16.632375 131.310496,17.127075 L131.310496,17.127075 Z M129.950985,14.592375 L129.950985,13.590225 C129.950985,13.416825 129.938467,13.276575 129.914681,13.169475 C129.840822,12.848175 129.681837,12.577875 129.437726,12.35985 C129.193615,12.141825 128.901933,12.032175 128.560178,12.032175 C128.073207,12.032175 127.690141,12.2298 127.408474,12.626325 C127.126807,13.02285 126.987852,13.529025 126.987852,14.1474 C126.987852,14.74155 127.1218,15.2235 127.390948,15.594525 C127.675119,15.989775 128.055681,16.1874 128.535141,16.1874 C128.965778,16.1874 129.312541,16.022925 129.571674,15.6927 C129.823296,15.387975 129.950985,15.020775 129.950985,14.592375 L129.950985,14.592375 Z"></path>
                    <path d="M138.011659,17.127075 L136.833667,17.127075 L136.738526,16.43475 L136.702222,16.43475 C136.296622,16.986825 135.722022,17.2635 134.978422,17.2635 C134.418844,17.2635 133.968178,17.081175 133.628926,16.719075 C133.32097,16.390125 133.169496,15.98085 133.169496,15.495075 C133.169496,14.760675 133.469941,14.20095 134.074585,13.81335 C134.675474,13.42575 135.52423,13.235775 136.617096,13.2447 L136.617096,13.1325 C136.617096,12.340725 136.208993,11.945475 135.394037,11.945475 C134.811926,11.945475 134.298667,12.09465 133.854259,12.39045 L133.587615,11.51325 C134.137178,11.167725 134.813178,10.994325 135.611859,10.994325 C137.156644,10.994325 137.927785,11.823075 137.927785,13.480575 L137.927785,15.693975 C137.926533,16.2945 137.955326,16.772625 138.011659,17.127075 L138.011659,17.127075 Z M136.652148,15.061575 L136.652148,14.13465 C135.202504,14.10915 134.478933,14.513325 134.478933,15.3459 C134.478933,15.65955 134.564059,15.89415 134.733059,16.050975 C134.902059,16.2078 135.114874,16.285575 135.371504,16.285575 C135.661933,16.285575 135.928578,16.1925 136.176444,16.007625 C136.420556,15.821475 136.57203,15.5856 136.628363,15.296175 C136.644637,15.23115 136.652148,15.1521 136.652148,15.061575 L136.652148,15.061575 Z"></path>
                    <path d="M145.346259,17.127075 L144.033067,17.127075 L144.033067,13.684575 C144.033067,12.623775 143.637481,12.093375 142.845059,12.093375 C142.455733,12.093375 142.141519,12.238725 141.896156,12.5307 C141.654548,12.822675 141.531867,13.166925 141.531867,13.5609 L141.531867,17.1258 L140.221178,17.1258 L140.221178,12.83415 C140.221178,12.3063 140.203652,11.733825 140.172356,11.114175 L141.326563,11.114175 L141.387904,12.05385 L141.424207,12.05385 C141.575681,11.761875 141.803519,11.5209 142.103963,11.328375 C142.458237,11.103975 142.857578,10.9905 143.29197,10.9905 C143.844037,10.9905 144.302215,11.17155 144.666504,11.534925 C145.118422,11.9799 145.346259,12.644175 145.346259,13.526475 L145.346259,17.127075 L145.346259,17.127075 Z"></path>
                    <path d="M151.261259,15.400725 C151.261259,15.959175 151.058459,16.407975 150.655363,16.74585 C150.249763,17.083725 149.691437,17.252025 148.977881,17.252025 C148.305637,17.252025 147.736044,17.1156 147.2666,16.844025 L147.545763,15.854625 C148.000185,16.135125 148.482148,16.275375 148.9904,16.275375 C149.662644,16.275375 149.998141,16.0242 149.998141,15.520575 C149.998141,15.298725 149.926785,15.115125 149.780319,14.969775 C149.633852,14.8257 149.374719,14.6829 149.002919,14.543925 C147.951363,14.1474 147.425585,13.5711 147.425585,12.812475 C147.425585,12.29355 147.61837,11.86005 148.007696,11.51325 C148.397022,11.16645 148.910281,10.994325 149.549978,10.994325 C150.132089,10.994325 150.630326,11.11545 151.043437,11.3577 L150.76177,12.317775 C150.382459,12.087 149.981867,11.97225 149.561244,11.97225 C149.284585,11.97225 149.069267,12.03855 148.915289,12.169875 C148.763815,12.302475 148.684948,12.4695 148.684948,12.67605 C148.684948,12.881325 148.765067,13.049625 148.926556,13.18095 C149.065511,13.304625 149.332156,13.439775 149.728993,13.587675 C150.750504,13.98165 151.261259,14.586 151.261259,15.400725 L151.261259,15.400725 Z"></path>
                </g>
            </g>
        </g>
    </g>
</svg>