<?xml version="1.0" encoding="UTF-8" standalone="no"?>
<svg width="113px" height="113px" viewBox="0 0 113 113" version="1.1" xmlns="http://www.w3.org/2000/svg" xmlns:xlink="http://www.w3.org/1999/xlink" xmlns:sketch="http://www.bohemiancoding.com/sketch/ns">
    <!-- Generator: Sketch 3.2 (9961) - http://www.bohemiancoding.com/sketch -->
    <title>Imported Layers 3 + Share A Tune 2</title>
    <desc>Created with Sketch.</desc>
    <defs>
        <path id="path-1" d="M32.4348463,0.158611653 C14.6509185,0.159042663 0.235191475,14.5564983 0.234759931,32.3179863 C0.235191475,50.0799054 14.6509185,64.477361 32.4348463,64.477792 C50.2187742,64.477361 64.6332066,50.0799054 64.6340696,32.3179863 L62.8211533,32.3179863 C62.8207218,40.7019914 59.4214498,48.2834561 53.9214216,53.7784016 C48.4196673,59.2720541 40.8288085,62.6671193 32.4348463,62.6675503 C24.0408842,62.6671193 16.4495938,59.2720541 10.9478395,53.7784016 C5.44737979,48.2834561 2.04810778,40.7019914 2.04767624,32.3179863 C2.04810778,23.9344123 5.44737979,16.3529476 10.9478395,10.8580021 C16.4495938,5.36434955 24.0408842,1.96928436 32.4348463,1.96885335 C40.8288085,1.96928436 48.4196673,5.36434955 53.9214216,10.8580021 C59.4214498,16.3529476 62.8207218,23.9344123 62.8211533,32.3179863 L64.6340696,32.3179863 C64.6332066,14.5564983 50.2187742,0.159042663 32.4348463,0.158611653"></path>
        <linearGradient x1="50%" y1="0%" x2="50%" y2="100%" id="linearGradient-3">
            <stop stop-color="#FFFFFF" offset="0%"></stop>
            <stop stop-color="#000000" offset="100%"></stop>
        </linearGradient>
        <path id="path-4" d="M32.4348463,0.158611653 C14.6509185,0.159042663 0.235191475,14.5564983 0.234759931,32.3179863 C0.235191475,50.0799054 14.6509185,64.477361 32.4348463,64.477792 C50.2187742,64.477361 64.6332066,50.0799054 64.6340696,32.3179863 L62.8211533,32.3179863 C62.8207218,40.7019914 59.4214498,48.2834561 53.9214216,53.7784016 C48.4196673,59.2720541 40.8288085,62.6671193 32.4348463,62.6675503 C24.0408842,62.6671193 16.4495938,59.2720541 10.9478395,53.7784016 C5.44737979,48.2834561 2.04810778,40.7019914 2.04767624,32.3179863 C2.04810778,23.9344123 5.44737979,16.3529476 10.9478395,10.8580021 C16.4495938,5.36434955 24.0408842,1.96928436 32.4348463,1.96885335 C40.8288085,1.96928436 48.4196673,5.36434955 53.9214216,10.8580021 C59.4214498,16.3529476 62.8207218,23.9344123 62.8211533,32.3179863 L64.6340696,32.3179863 C64.6332066,14.5564983 50.2187742,0.159042663 32.4348463,0.158611653"></path>
        <path id="path-6" d="M38.9584968,0.204729715 C17.6372029,0.205160725 0.352139896,17.4675393 0.351708352,38.7633088 C0.352139896,60.0595093 17.6367714,77.3218879 38.9584968,77.3218879 C60.2802223,77.3218879 77.5648538,60.0595093 77.5652853,38.7633088 L76.3591199,38.7633088 C76.3591199,49.0803934 72.1740062,58.4152064 65.4048072,65.1768901 C58.6347451,71.9377119 49.2883653,76.1176461 38.9584968,76.1176461 C28.6290599,76.1176461 19.2826801,71.9377119 12.512618,65.1768901 C5.74341897,58.4152064 1.55830535,49.0803934 1.55787381,38.7633088 C1.55830535,28.4466552 5.74341897,19.1114112 12.512618,12.3497274 C19.2826801,5.58933673 28.6290599,1.40940246 38.9584968,1.40940246 C49.2883653,1.40940246 58.6347451,5.58933673 65.4048072,12.3497274 C72.1740062,19.1114112 76.3586883,28.4462242 76.3591199,38.7633088 L77.5652853,38.7633088 C77.5648538,17.4675393 60.2802223,0.205160725 38.9584968,0.204729715"></path>
        <path id="path-8" d="M45.2706908,0.423251748 C20.3451414,0.423682758 0.139820253,20.6039985 0.139388709,45.4987009 C0.139820253,70.3929723 20.3451414,90.5732881 45.2706908,90.5737191 C70.1958086,90.5732881 90.4006982,70.3929723 90.4011298,45.4987009 L89.3964954,45.4987009 C89.3960638,57.6699902 84.4583375,68.6844489 76.4721844,76.6615807 C68.4855998,84.6378504 57.4574931,89.5694659 45.2706908,89.569897 C33.0838885,89.5694659 22.0553503,84.6378504 14.0687656,76.6615807 C6.08261255,68.6844489 1.14445466,57.6699902 1.14445466,45.4987009 C1.14445466,33.3269806 6.08261255,22.3120909 14.0687656,14.3353902 C22.0553503,6.35912046 33.0838885,1.42707387 45.2706908,1.42707387 C57.4574931,1.42707387 68.4855998,6.35912046 76.4721844,14.3353902 C84.4583375,22.3120909 89.3960638,33.3269806 89.3964954,45.4987009 L90.4011298,45.4987009 C90.4006982,20.6039985 70.1958086,0.423682758 45.2706908,0.423251748"></path>
        <path id="path-10" d="M45.2706908,0.423251748 C20.3451414,0.423682758 0.139820253,20.6039985 0.139388709,45.4987009 C0.139820253,70.3929723 20.3451414,90.5732881 45.2706908,90.5737191 C70.1958086,90.5732881 90.4006982,70.3929723 90.4011298,45.4987009 L89.3964954,45.4987009 C89.3960638,57.6699902 84.4583375,68.6844489 76.4721844,76.6615807 C68.4855998,84.6378504 57.4574931,89.5694659 45.2706908,89.569897 C33.0838885,89.5694659 22.0553503,84.6378504 14.0687656,76.6615807 C6.08261255,68.6844489 1.14445466,57.6699902 1.14445466,45.4987009 C1.14445466,33.3269806 6.08261255,22.3120909 14.0687656,14.3353902 C22.0553503,6.35912046 33.0838885,1.42707387 45.2706908,1.42707387 C57.4574931,1.42707387 68.4855998,6.35912046 76.4721844,14.3353902 C84.4583375,22.3120909 89.3960638,33.3269806 89.3964954,45.4987009 L90.4011298,45.4987009 C90.4006982,20.6039985 70.1958086,0.423682758 45.2706908,0.423251748"></path>
        <path id="path-12" d="M45.2706908,0.423251748 C20.3451414,0.423682758 0.139820253,20.6039985 0.139388709,45.4987009 C0.139820253,70.3929723 20.3451414,90.5732881 45.2706908,90.5737191 C70.1958086,90.5732881 90.4006982,70.3929723 90.4011298,45.4987009 L89.3964954,45.4987009 C89.3960638,57.6699902 84.4583375,68.6844489 76.4721844,76.6615807 C68.4855998,84.6378504 57.4574931,89.5694659 45.2706908,89.569897 C33.0838885,89.5694659 22.0553503,84.6378504 14.0687656,76.6615807 C6.08261255,68.6844489 1.14445466,57.6699902 1.14445466,45.4987009 C1.14445466,33.3269806 6.08261255,22.3120909 14.0687656,14.3353902 C22.0553503,6.35912046 33.0838885,1.42707387 45.2706908,1.42707387 C57.4574931,1.42707387 68.4855998,6.35912046 76.4721844,14.3353902 C84.4583375,22.3120909 89.3960638,33.3269806 89.3964954,45.4987009 L90.4011298,45.4987009 C90.4006982,20.6039985 70.1958086,0.423682758 45.2706908,0.423251748"></path>
        <path d="M84.2201252,14.241861 C84.6106725,14.6073574 84.9956097,14.97975 85.3740738,15.3577457 C94.3588197,24.3318034 99.9153801,36.7267869 99.9158117,50.4208343 L100.39051,50.4208343 C100.39051,36.2776745 94.5176279,23.5042643 85.0758769,14.4000417 C84.7850163,14.3646988 84.4993342,14.3112536 84.2201252,14.241861 M81.1889602,11.0187688 C81.3503577,11.2291016 81.5255645,11.4290902 81.7132862,11.6165796 C82.1642496,12.0669849 82.6855548,12.4454116 83.2603714,12.7337573 C82.5862996,12.1445667 81.8945346,11.5717545 81.1889602,11.0187688 M50.2675387,0.359893289 C22.5857178,0.359893289 0.144998781,22.7728405 0.144567237,50.4208343 C0.144998781,78.0688281 22.5852863,100.481344 50.2675387,100.481344 C77.949791,100.481344 100.39051,78.0688281 100.39051,50.4208343 L99.9158117,50.4208343 C99.9153801,64.1144507 94.3588197,76.5098652 85.3740738,85.4839228 C76.3888964,94.4575495 63.9785543,100.007233 50.2675387,100.007233 C36.5569545,100.007233 24.1466124,94.4575495 15.1610035,85.4839228 C6.17625759,76.5098652 0.61969717,64.1144507 0.61969717,50.4208343 C0.61969717,36.7267869 6.17625759,24.3318034 15.1610035,15.3577457 C24.1466124,6.38368803 36.5569545,0.834004209 50.2675387,0.834004209 C61.2067473,0.834004209 71.3191176,4.36742359 79.5232004,10.3537205 C79.4019365,10.0912354 79.2962083,9.82056118 79.2073102,9.54212877 C71.0330039,3.75926858 61.0475075,0.359893289 50.2675387,0.359893289" id="path-13"></path>
        <path d="M84.2201252,14.241861 C84.6106725,14.6073574 84.9956097,14.97975 85.3740738,15.3577457 C94.3588197,24.3318034 99.9153801,36.7267869 99.9158117,50.4208343 L100.39051,50.4208343 C100.39051,36.2776745 94.5176279,23.5042643 85.0758769,14.4000417 C84.7850163,14.3646988 84.4993342,14.3112536 84.2201252,14.241861 M81.1889602,11.0187688 C81.3503577,11.2291016 81.5255645,11.4290902 81.7132862,11.6165796 C82.1642496,12.0669849 82.6855548,12.4454116 83.2603714,12.7337573 C82.5862996,12.1445667 81.8945346,11.5717545 81.1889602,11.0187688 M50.2675387,0.359893289 C22.5857178,0.359893289 0.144998781,22.7728405 0.144567237,50.4208343 C0.144998781,78.0688281 22.5852863,100.481344 50.2675387,100.481344 C77.949791,100.481344 100.39051,78.0688281 100.39051,50.4208343 L99.9158117,50.4208343 C99.9153801,64.1144507 94.3588197,76.5098652 85.3740738,85.4839228 C76.3888964,94.4575495 63.9785543,100.007233 50.2675387,100.007233 C36.5569545,100.007233 24.1466124,94.4575495 15.1610035,85.4839228 C6.17625759,76.5098652 0.61969717,64.1144507 0.61969717,50.4208343 C0.61969717,36.7267869 6.17625759,24.3318034 15.1610035,15.3577457 C24.1466124,6.38368803 36.5569545,0.834004209 50.2675387,0.834004209 C61.2067473,0.834004209 71.3191176,4.36742359 79.5232004,10.3537205 C79.4019365,10.0912354 79.2962083,9.82056118 79.2073102,9.54212877 C71.0330039,3.75926858 61.0475075,0.359893289 50.2675387,0.359893289" id="path-15"></path>
        <path d="M84.2201252,14.241861 C84.6106725,14.6073574 84.9956097,14.97975 85.3740738,15.3577457 C94.3588197,24.3318034 99.9153801,36.7267869 99.9158117,50.4208343 L100.39051,50.4208343 C100.39051,36.2776745 94.5176279,23.5042643 85.0758769,14.4000417 C84.7850163,14.3646988 84.4993342,14.3112536 84.2201252,14.241861 M81.1889602,11.0187688 C81.3503577,11.2291016 81.5255645,11.4290902 81.7132862,11.6165796 C82.1642496,12.0669849 82.6855548,12.4454116 83.2603714,12.7337573 C82.5862996,12.1445667 81.8945346,11.5717545 81.1889602,11.0187688 M50.2675387,0.359893289 C22.5857178,0.359893289 0.144998781,22.7728405 0.144567237,50.4208343 C0.144998781,78.0688281 22.5852863,100.481344 50.2675387,100.481344 C77.949791,100.481344 100.39051,78.0688281 100.39051,50.4208343 L99.9158117,50.4208343 C99.9153801,64.1144507 94.3588197,76.5098652 85.3740738,85.4839228 C76.3888964,94.4575495 63.9785543,100.007233 50.2675387,100.007233 C36.5569545,100.007233 24.1466124,94.4575495 15.1610035,85.4839228 C6.17625759,76.5098652 0.61969717,64.1144507 0.61969717,50.4208343 C0.61969717,36.7267869 6.17625759,24.3318034 15.1610035,15.3577457 C24.1466124,6.38368803 36.5569545,0.834004209 50.2675387,0.834004209 C61.2067473,0.834004209 71.3191176,4.36742359 79.5232004,10.3537205 C79.4019365,10.0912354 79.2962083,9.82056118 79.2073102,9.54212877 C71.0330039,3.75926858 61.0475075,0.359893289 50.2675387,0.359893289" id="path-17"></path>
    </defs>
    <g id="Page-1" stroke="none" stroke-width="1" fill="none" fill-rule="evenodd" sketch:type="MSPage">
        <g id="Imported-Layers-3-+-Share-A-Tune-2-+-Share-a-Tune-2" sketch:type="MSLayerGroup">
            <g id="Imported-Layers-3-+-Share-A-Tune-2">
                <g id="Imported-Layers-3">
                    <g id="Group-15" transform="translate(24.166463, 24.136556)">
                        <g id="Group-11">
                            <mask id="mask-2" sketch:name="Clip 10" fill="white">
                                <use xlink:href="#path-1"></use>
                            </mask>
                            <g id="Clip-10"></g>
                            <path d="M32.4348463,0.158611653 C14.6509185,0.159042663 0.235191475,14.5564983 0.234759931,32.3179863 C0.235191475,50.0799054 14.6509185,64.477361 32.4348463,64.477792 C50.2187742,64.477361 64.6332066,50.0799054 64.6340696,32.3179863 L62.8211533,32.3179863 C62.8207218,40.7019914 59.4214498,48.2834561 53.9214216,53.7784016 C48.4196673,59.2720541 40.8288085,62.6671193 32.4348463,62.6675503 C24.0408842,62.6671193 16.4495938,59.2720541 10.9478395,53.7784016 C5.44737979,48.2834561 2.04810778,40.7019914 2.04767624,32.3179863 C2.04810778,23.9344123 5.44737979,16.3529476 10.9478395,10.8580021 C16.4495938,5.36434955 24.0408842,1.96928436 32.4348463,1.96885335 C40.8288085,1.96928436 48.4196673,5.36434955 53.9214216,10.8580021 C59.4214498,16.3529476 62.8207218,23.9344123 62.8211533,32.3179863 L64.6340696,32.3179863 C64.6332066,14.5564983 50.2187742,0.159042663 32.4348463,0.158611653" id="Fill-9" fill="url(#linearGradient-3)" sketch:type="MSShapeGroup" mask="url(#mask-2)"></path>
                        </g>
                        <g id="Group-14">
                            <mask id="mask-5" sketch:name="Clip 13" fill="white">
                                <use xlink:href="#path-4"></use>
                            </mask>
                            <g id="Clip-13"></g>
                            <path d="M32.4348463,0.158611653 C14.6509185,0.159042663 0.235191475,14.5564983 0.234759931,32.3179863 C0.235191475,50.0799054 14.6509185,64.477361 32.4348463,64.477792 C50.2187742,64.477361 64.6332066,50.0799054 64.6340696,32.3179863 L62.8211533,32.3179863 C62.8207218,40.7019914 59.4214498,48.2834561 53.9214216,53.7784016 C48.4196673,59.2720541 40.8288085,62.6671193 32.4348463,62.6675503 C24.0408842,62.6671193 16.4495938,59.2720541 10.9478395,53.7784016 C5.44737979,48.2834561 2.04810778,40.7019914 2.04767624,32.3179863 C2.04810778,23.9344123 5.44737979,16.3529476 10.9478395,10.8580021 C16.4495938,5.36434955 24.0408842,1.96928436 32.4348463,1.96885335 C40.8288085,1.96928436 48.4196673,5.36434955 53.9214216,10.8580021 C59.4214498,16.3529476 62.8207218,23.9344123 62.8211533,32.3179863 L64.6340696,32.3179863 C64.6332066,14.5564983 50.2187742,0.159042663 32.4348463,0.158611653" id="Fill-12" fill="#FFFFFF" sketch:type="MSShapeGroup" mask="url(#mask-5)"></path>
                        </g>
                    </g>
                    <path d="M69.9575963,56.4545422 L70.8642702,56.4545422 C70.8634071,48.586887 64.4787138,42.2096642 56.6004467,42.2092332 C48.7230427,42.2096642 42.3387809,48.586887 42.3383494,56.4545422 C42.3387809,64.3226285 48.7234743,70.6998513 56.6004467,70.7002824 C64.4787138,70.6998513 70.8634071,64.3226285 70.8642702,56.4545422 L69.0513539,56.4545422 C69.0509224,59.8914154 67.659193,62.9946869 65.4048072,65.2475758 C63.1486952,67.4991716 60.0415785,68.8891786 56.6004467,68.8896096 C53.160178,68.8891786 50.0530613,67.4991716 47.7973809,65.2475758 C45.542995,62.9946869 44.1512657,59.8914154 44.1508341,56.4545422 C44.1512657,53.0181001 45.542995,49.9152596 47.7973809,47.6619397 C50.0530613,45.4099129 53.160178,44.0203369 56.6004467,44.0194748 C60.0415785,44.0203369 63.1486952,45.4099129 65.4048072,47.6619397 C67.659193,49.9152596 69.0509224,53.0181001 69.0513539,56.4545422 L69.9575963,56.4545422" id="Fill-16" fill="#FFFFFF" sketch:type="MSShapeGroup"></path>
                    <path d="M60.0355369,56.4545422 C60.0355369,54.5602536 58.4979456,53.0245652 56.6008783,53.0245652 C54.704674,53.0245652 53.1670827,54.5602536 53.1670827,56.4545422 C53.1670827,58.3492619 54.704674,59.8849503 56.6008783,59.8849503 C58.4979456,59.8849503 60.0355369,58.3492619 60.0355369,56.4545422" id="Fill-17" fill="#FFFFFF" sketch:type="MSShapeGroup"></path>
                    <path d="M98.5102729,13.4259592 L97.966959,13.4259592 C97.9665275,15.0775893 97.2980658,16.5680216 96.2144589,17.6507185 C95.1299888,18.7325534 93.6381412,19.4006188 91.9848962,19.4006188 C90.3312196,19.4006188 88.8389405,18.7325534 87.754902,17.6507185 C86.6712951,16.5680216 86.0028334,15.0775893 86.0024019,13.4259592 C86.0028334,11.7747602 86.6712951,10.2843279 87.754902,9.20119992 C88.8389405,8.119365 90.3312196,7.45173063 91.9848962,7.45129962 C93.6381412,7.45173063 95.1299888,8.119365 96.2144589,9.20119992 C97.2980658,10.2843279 97.9665275,11.7747602 97.966959,13.4259592 L99.0540183,13.4259592 C99.0535868,9.5261814 95.8890747,6.36558561 91.9848962,6.3651546 C88.0798546,6.36558561 84.9153426,9.5261814 84.9153426,13.4259592 C84.9153426,17.325737 88.0798546,20.4867638 91.9848962,20.4871949 C95.8890747,20.4867638 99.0535868,17.325737 99.0540183,13.4259592 L98.5102729,13.4259592" id="Fill-18" fill="#FFFFFF" sketch:type="MSShapeGroup"></path>
                    <g id="Group-21" transform="translate(17.693304, 17.671407)">
                        <mask id="mask-7" sketch:name="Clip 20" fill="white">
                            <use xlink:href="#path-6"></use>
                        </mask>
                        <g id="Clip-20"></g>
                        <path d="M38.9584968,0.204729715 C17.6372029,0.205160725 0.352139896,17.4675393 0.351708352,38.7633088 C0.352139896,60.0595093 17.6367714,77.3218879 38.9584968,77.3218879 C60.2802223,77.3218879 77.5648538,60.0595093 77.5652853,38.7633088 L76.3591199,38.7633088 C76.3591199,49.0803934 72.1740062,58.4152064 65.4048072,65.1768901 C58.6347451,71.9377119 49.2883653,76.1176461 38.9584968,76.1176461 C28.6290599,76.1176461 19.2826801,71.9377119 12.512618,65.1768901 C5.74341897,58.4152064 1.55830535,49.0803934 1.55787381,38.7633088 C1.55830535,28.4466552 5.74341897,19.1114112 12.512618,12.3497274 C19.2826801,5.58933673 28.6290599,1.40940246 38.9584968,1.40940246 C49.2883653,1.40940246 58.6347451,5.58933673 65.4048072,12.3497274 C72.1740062,19.1114112 76.3586883,28.4462242 76.3591199,38.7633088 L77.5652853,38.7633088 C77.5648538,17.4675393 60.2802223,0.205160725 38.9584968,0.204729715" id="Fill-19" sketch:type="MSShapeGroup" mask="url(#mask-7)"></path>
                    </g>
                    <g id="Group-24" transform="translate(17.693304, 17.671407)" fill-opacity="0.25" fill="#FFFFFF" sketch:type="MSShapeGroup">
                        <path d="M38.9584968,0.204729715 C17.6372029,0.205160725 0.352139896,17.4675393 0.351708352,38.7633088 C0.352139896,60.0595093 17.6367714,77.3218879 38.9584968,77.3218879 C60.2802223,77.3218879 77.5648538,60.0595093 77.5652853,38.7633088 L76.3591199,38.7633088 C76.3591199,49.0803934 72.1740062,58.4152064 65.4048072,65.1768901 C58.6347451,71.9377119 49.2883653,76.1176461 38.9584968,76.1176461 C28.6290599,76.1176461 19.2826801,71.9377119 12.512618,65.1768901 C5.74341897,58.4152064 1.55830535,49.0803934 1.55787381,38.7633088 C1.55830535,28.4466552 5.74341897,19.1114112 12.512618,12.3497274 C19.2826801,5.58933673 28.6290599,1.40940246 38.9584968,1.40940246 C49.2883653,1.40940246 58.6347451,5.58933673 65.4048072,12.3497274 C72.1740062,19.1114112 76.3586883,28.4462242 76.3591199,38.7633088 L77.5652853,38.7633088 C77.5648538,17.4675393 60.2802223,0.205160725 38.9584968,0.204729715" id="Fill-22"></path>
                    </g>
                    <g id="Group-32" transform="translate(11.220144, 10.775248)">
                        <g id="Group-28">
                            <mask id="mask-9" sketch:name="Clip 27" fill="white">
                                <use xlink:href="#path-8"></use>
                            </mask>
                            <g id="Clip-27"></g>
                            <path d="M45.2706908,0.423251748 C20.3451414,0.423682758 0.139820253,20.6039985 0.139388709,45.4987009 C0.139820253,70.3929723 20.3451414,90.5732881 45.2706908,90.5737191 C70.1958086,90.5732881 90.4006982,70.3929723 90.4011298,45.4987009 L89.3964954,45.4987009 C89.3960638,57.6699902 84.4583375,68.6844489 76.4721844,76.6615807 C68.4855998,84.6378504 57.4574931,89.5694659 45.2706908,89.569897 C33.0838885,89.5694659 22.0553503,84.6378504 14.0687656,76.6615807 C6.08261255,68.6844489 1.14445466,57.6699902 1.14445466,45.4987009 C1.14445466,33.3269806 6.08261255,22.3120909 14.0687656,14.3353902 C22.0553503,6.35912046 33.0838885,1.42707387 45.2706908,1.42707387 C57.4574931,1.42707387 68.4855998,6.35912046 76.4721844,14.3353902 C84.4583375,22.3120909 89.3960638,33.3269806 89.3964954,45.4987009 L90.4011298,45.4987009 C90.4006982,20.6039985 70.1958086,0.423682758 45.2706908,0.423251748" id="Fill-26" sketch:type="MSShapeGroup" mask="url(#mask-9)"></path>
                        </g>
                        <g id="Group-31">
                            <mask id="mask-11" sketch:name="Clip 30" fill="white">
                                <use xlink:href="#path-10"></use>
                            </mask>
                            <g id="Clip-30"></g>
                            <g id="Fill-29">
                                <use fill="none" sketch:type="MSShapeGroup" mask="url(#mask-11)" xlink:href="#path-12"></use>
                                <use fill-opacity="0.15" fill="#FFFFFF" fill-rule="evenodd" xlink:href="#path-12"></use>
                            </g>
                        </g>
                    </g>
                    <g id="Group-39" transform="translate(6.041616, 6.034139)">
                        <g id="Group-35">
                            <mask id="mask-14" sketch:name="Clip 34" fill="white">
                                <use xlink:href="#path-13"></use>
                            </mask>
                            <g id="Clip-34"></g>
                            <path d="M84.2201252,14.241861 C84.6106725,14.6073574 84.9956097,14.97975 85.3740738,15.3577457 C94.3588197,24.3318034 99.9153801,36.7267869 99.9158117,50.4208343 L100.39051,50.4208343 C100.39051,36.2776745 94.5176279,23.5042643 85.0758769,14.4000417 C84.7850163,14.3646988 84.4993342,14.3112536 84.2201252,14.241861 M81.1889602,11.0187688 C81.3503577,11.2291016 81.5255645,11.4290902 81.7132862,11.6165796 C82.1642496,12.0669849 82.6855548,12.4454116 83.2603714,12.7337573 C82.5862996,12.1445667 81.8945346,11.5717545 81.1889602,11.0187688 M50.2675387,0.359893289 C22.5857178,0.359893289 0.144998781,22.7728405 0.144567237,50.4208343 C0.144998781,78.0688281 22.5852863,100.481344 50.2675387,100.481344 C77.949791,100.481344 100.39051,78.0688281 100.39051,50.4208343 L99.9158117,50.4208343 C99.9153801,64.1144507 94.3588197,76.5098652 85.3740738,85.4839228 C76.3888964,94.4575495 63.9785543,100.007233 50.2675387,100.007233 C36.5569545,100.007233 24.1466124,94.4575495 15.1610035,85.4839228 C6.17625759,76.5098652 0.61969717,64.1144507 0.61969717,50.4208343 C0.61969717,36.7267869 6.17625759,24.3318034 15.1610035,15.3577457 C24.1466124,6.38368803 36.5569545,0.834004209 50.2675387,0.834004209 C61.2067473,0.834004209 71.3191176,4.36742359 79.5232004,10.3537205 C79.4019365,10.0912354 79.2962083,9.82056118 79.2073102,9.54212877 C71.0330039,3.75926858 61.0475075,0.359893289 50.2675387,0.359893289" id="Fill-33" sketch:type="MSShapeGroup" mask="url(#mask-14)"></path>
                        </g>
                        <g id="Group-38">
                            <mask id="mask-16" sketch:name="Clip 37" fill="white">
                                <use xlink:href="#path-15"></use>
                            </mask>
                            <g id="Clip-37"></g>
                            <g id="Fill-36">
                                <use fill="none" sketch:type="MSShapeGroup" mask="url(#mask-16)" xlink:href="#path-17"></use>
                                <use fill-opacity="0.11" fill="#FFFFFF" fill-rule="evenodd" xlink:href="#path-17"></use>
                            </g>
                        </g>
                    </g>
                    <path d="M85.2489261,15.5762677 C85.3378241,15.8547002 85.4435524,16.1253744 85.5648163,16.3878594 C87.2107251,17.5882221 88.7785244,18.886424 90.2617411,20.276 C90.54095,20.3453926 90.8266321,20.3988378 91.1174928,20.4341806 C90.5262775,19.8639545 89.9208213,19.3088137 89.3019872,18.7678963 C88.7271706,18.4795506 88.2058655,18.1011239 87.754902,17.6507185 C87.5671804,17.4632292 87.3919735,17.2632406 87.2305761,17.0529078 C86.5819655,16.543885 85.9229978,16.0529647 85.2489261,15.5762677" id="Fill-40" fill="#FFFFFF" sketch:type="MSShapeGroup"></path>
                    <g id="Group-47" fill-opacity="0.1" fill="#FFFFFF" sketch:type="MSShapeGroup">
                        <g id="Group-46">
                            <path d="M97.4279606,17.931737 C97.3312947,18.0481097 97.2311765,18.1614653 97.1267429,18.2713728 C106.619416,28.2807164 112.441376,41.7954636 112.441376,56.6700472 L112.893634,56.6700472 C112.893634,41.6605575 107.013847,28.0242654 97.4279606,17.931737 M87.4157084,9.56971341 C87.317748,9.68522407 87.2241029,9.80418281 87.1356364,9.92702064 C90.3584069,12.0363832 93.3494383,14.4694343 96.0634185,17.1800557 C96.1661259,17.282636 96.2688334,17.3856474 96.3702463,17.4890898 C96.4733853,17.3783203 96.5722088,17.2636716 96.666717,17.1451439 C93.8651334,14.3069435 90.7649214,11.765278 87.4157084,9.56971341 M56.524495,0.371099547 C25.3929115,0.371099547 0.155787381,25.5769911 0.155787381,56.6700472 C0.155787381,87.7635343 25.3929115,112.968995 56.524495,112.969426 C87.65651,112.968995 112.893203,87.7635343 112.893634,56.6700472 L112.441376,56.6700472 C112.441376,72.0928754 106.183125,86.053287 96.0634185,96.1600387 C85.9437119,106.266791 71.9664336,112.517296 56.524495,112.517296 C41.0829879,112.517296 27.105278,106.266791 16.9855715,96.1600387 C6.86672798,86.053287 0.608477027,72.0928754 0.608045483,56.6700472 C0.608477027,41.24765 6.86672798,27.2872385 16.9855715,17.1800557 C27.105278,7.07330391 41.0829879,0.82279795 56.524495,0.82279795 C67.4347901,0.82279795 77.6144813,3.94330982 86.2186054,9.33955411 C86.3066404,9.21585426 86.3981277,9.0960335 86.4939305,8.97836779 C77.8121285,3.52479918 67.5379292,0.371099547 56.524495,0.371099547" id="Fill-44"></path>
                        </g>
                    </g>
                    <path d="M96.666717,17.1451439 C96.5722088,17.2636716 96.4733853,17.3783203 96.3702463,17.4890898 C96.6252888,17.7476958 96.8768789,18.0080258 97.1267429,18.2713728 C97.2311765,18.1614653 97.3312947,18.0481097 97.4279606,17.931737 C97.1772335,17.6675279 96.9226226,17.4046119 96.666717,17.1451439 M86.4939305,8.97836779 C86.3981277,9.0960335 86.3066404,9.21585426 86.2186054,9.33955411 C86.5267278,9.53264655 86.8318294,9.72789405 87.1356364,9.92702064 C87.2241029,9.80418281 87.317748,9.68522407 87.4157084,9.56971341 C87.1106068,9.37015581 86.8024844,9.17232225 86.4939305,8.97836779" id="Fill-48" fill="#FFFFFF" sketch:type="MSShapeGroup"></path>
                    <path d="M72.2326962,76.5680515 C71.3976586,76.5680515 70.6131116,76.243501 70.023191,75.6538794 L68.0855585,73.7186449 C66.8668782,72.5019038 66.8664467,70.5218442 68.0851269,69.3051032 L75.5422071,61.8568207 C76.1321277,61.2676301 76.9162432,60.9435106 77.7504177,60.9435106 C78.3511269,60.9435106 78.9371637,61.1167766 79.4377547,61.437017 L89.991163,50.8962382 L89.991163,35.6359008 C88.9356064,34.994558 88.2904481,33.8597088 88.2904481,32.6140902 L88.2904481,25.7373268 C88.2904481,24.4912771 88.9356064,23.3564279 89.991163,22.7150852 L89.991163,14.6952835 C89.991163,13.6487914 90.584536,12.8294415 91.3423272,12.8294415 L92.5277786,12.8294415 C93.2851383,12.8294415 93.8785113,13.6487914 93.8785113,14.6952835 L93.8785113,22.7155162 C94.9340679,23.3568589 95.5792261,24.4917081 95.5792261,25.7373268 L95.5792261,32.6140902 C95.5792261,33.8597088 94.9340679,34.994127 93.8785113,35.6359008 L93.8785113,51.713002 C93.940222,52.3246051 93.7274709,52.9224159 93.2929061,53.3564429 L82.3209001,64.3148703 C83.1127833,65.5367834 82.9587221,67.1478985 81.8997132,68.2060279 L74.4422015,75.6538794 C73.8522808,76.243501 73.0673023,76.5680515 72.2326962,76.5680515" id="Fill-49" fill="#FFFFFF" sketch:type="MSShapeGroup"></path>
                    <path d="M92.5277786,13.2604514 C93.0352743,13.2604514 93.4469673,13.9026562 93.4469673,14.6952835 L93.4469673,22.968088 C94.4559171,23.4827138 95.1476821,24.5283439 95.1476821,25.7373268 L95.1476821,32.6140902 C95.1476821,33.823073 94.4559171,34.8682721 93.4469673,35.3833289 L93.4469673,51.7362766 C93.5000472,52.2047844 93.3472806,52.6922566 92.9878045,53.0517189 L81.7529882,64.2722003 C82.6424004,65.3290366 82.589752,66.906533 81.5946116,67.9013039 L74.1370999,75.3491554 C73.6110477,75.8745565 72.9223035,76.1370416 72.2326962,76.1370416 C71.5430889,76.1370416 70.8543447,75.8745565 70.3282926,75.3491554 L68.3902285,73.4139209 C67.3385558,72.3635497 67.3385558,70.6601984 68.3902285,69.6098272 L75.8473087,62.1615447 C76.3733608,61.6365746 77.0616735,61.3745206 77.7504177,61.3745206 C78.366231,61.3745206 78.9820442,61.5839914 79.4813406,62.003364 L90.422707,51.0751073 L90.422707,35.3833289 C89.4133256,34.8687031 88.7219921,33.823073 88.7219921,32.6140902 L88.7219921,25.7373268 C88.7219921,24.5279129 89.4133256,23.4822828 90.422707,22.967657 L90.422707,14.6952835 C90.422707,13.9026562 90.8335369,13.2604514 91.3423272,13.2604514 L92.5277786,13.2604514 M92.5277786,12.3984316 L91.3423272,12.3984316 C90.3428713,12.3984316 89.559619,13.4069948 89.559619,14.6952835 L89.559619,22.4814778 C88.4988839,23.2189358 87.8589041,24.4227465 87.8589041,25.7373268 L87.8589041,32.6140902 C87.8589041,33.9282394 88.4988839,35.1324812 89.559619,35.8695081 L89.559619,50.7178001 L79.3652553,60.8995476 C78.8689797,60.6469758 78.3153088,60.5125007 77.7504177,60.5125007 C76.8014525,60.5125007 75.9085879,60.8814452 75.2371055,61.5516656 L67.7800253,69.0003792 C66.3934745,70.3852141 66.3934745,72.638534 67.7804569,74.0233689 L69.7180894,75.9586035 C70.3895718,76.6296859 71.2828679,76.9990614 72.2326962,76.9990614 C73.1825246,76.9990614 74.0753891,76.6296859 74.7473031,75.9586035 L82.2048148,68.5107519 C83.3242399,67.3918502 83.5551159,65.7307379 82.8603301,64.3855559 L93.5980077,53.6611669 C94.1197443,53.1405069 94.3773761,52.4254615 94.3100552,51.6927446 L94.3100552,35.8695081 C95.3707904,35.1320502 96.0107701,33.9278084 96.0107701,32.6140902 L96.0107701,25.7373268 C96.0107701,24.4231775 95.3707904,23.2189358 94.3100552,22.4819088 L94.3100552,14.6952835 C94.3100552,13.4069948 93.5272344,12.3984316 92.5277786,12.3984316" id="Fill-50" fill="#CB2253" sketch:type="MSShapeGroup"></path>
                    <path d="M94.8848718,13.6974955 C94.8848718,15.3474015 93.5457908,16.6848253 91.8934089,16.6848253 C90.24189,16.6848253 88.902809,15.3474015 88.902809,13.6974955 C88.902809,12.0475895 90.24189,10.7105967 91.8934089,10.7105967 C93.5457908,10.7105967 94.8848718,12.0475895 94.8848718,13.6974955" id="Fill-51" fill="#FFFFFF" sketch:type="MSShapeGroup"></path>
                </g>
            </g>
        </g>
    </g>
</svg>