<?xml version="1.0" encoding="UTF-8" standalone="no"?>
<svg width="180px" height="219px" viewBox="0 0 180 219" version="1.1" xmlns="http://www.w3.org/2000/svg" xmlns:xlink="http://www.w3.org/1999/xlink" xmlns:sketch="http://www.bohemiancoding.com/sketch/ns">
    <!-- Generator: Sketch 3.2 (9961) - http://www.bohemiancoding.com/sketch -->
    <title>Imported Layers 3 + Share A Tune 2 + Share a Tune 2</title>
    <desc>Created with Sketch.</desc>
    <defs>
        <path id="path-1" d="M51.6661269,0.253547095 C23.3377463,0.254236082 0.374641287,23.2691469 0.373953872,51.6615986 C0.374641287,80.0547393 23.3377463,103.06965 51.6661269,103.070339 C79.9945075,103.06965 102.95555,80.0547393 102.956925,51.6615986 L100.069094,51.6615986 C100.068406,65.0637673 94.6536368,77.1830429 85.89253,85.966934 C77.1286736,94.7487581 65.0370401,100.175906 51.6661269,100.176595 C38.2952137,100.175906 26.2028928,94.7487581 17.4390364,85.966934 C8.67724215,77.1830429 3.26247257,65.0637673 3.26178515,51.6615986 C3.26247257,38.2601189 8.67724215,26.1408433 17.4390364,17.3569522 C26.2028928,8.57512811 38.2952137,3.1479801 51.6661269,3.14729112 C65.0370401,3.1479801 77.1286736,8.57512811 85.89253,17.3569522 C94.6536368,26.1408433 100.068406,38.2601189 100.069094,51.6615986 L102.956925,51.6615986 C102.95555,23.2691469 79.9945075,0.254236082 51.6661269,0.253547095"></path>
        <linearGradient x1="50%" y1="0%" x2="50%" y2="100%" id="linearGradient-3">
            <stop stop-color="#FFFFFF" offset="0%"></stop>
            <stop stop-color="#000000" offset="100%"></stop>
        </linearGradient>
        <path id="path-4" d="M51.6661269,0.253547095 C23.3377463,0.254236082 0.374641287,23.2691469 0.373953872,51.6615986 C0.374641287,80.0547393 23.3377463,103.06965 51.6661269,103.070339 C79.9945075,103.06965 102.95555,80.0547393 102.956925,51.6615986 L100.069094,51.6615986 C100.068406,65.0637673 94.6536368,77.1830429 85.89253,85.966934 C77.1286736,94.7487581 65.0370401,100.175906 51.6661269,100.176595 C38.2952137,100.175906 26.2028928,94.7487581 17.4390364,85.966934 C8.67724215,77.1830429 3.26247257,65.0637673 3.26178515,51.6615986 C3.26247257,38.2601189 8.67724215,26.1408433 17.4390364,17.3569522 C26.2028928,8.57512811 38.2952137,3.1479801 51.6661269,3.14729112 C65.0370401,3.1479801 77.1286736,8.57512811 85.89253,17.3569522 C94.6536368,26.1408433 100.068406,38.2601189 100.069094,51.6615986 L102.956925,51.6615986 C102.95555,23.2691469 79.9945075,0.254236082 51.6661269,0.253547095"></path>
        <path id="path-6" d="M62.0577826,0.327268669 C28.0946595,0.327957656 0.560930808,27.9225628 0.560243393,61.9647053 C0.560930808,96.0075367 28.0939721,123.602142 62.0577826,123.602142 C96.0215931,123.602142 123.554634,96.0075367 123.555322,61.9647053 L121.633996,61.9647053 C121.633996,78.4569792 114.967444,93.3790526 104.184649,104.187875 C93.4004789,114.99532 78.5124404,121.677113 62.0577826,121.677113 C45.6038122,121.677113 30.7157737,114.99532 19.9316039,104.187875 C9.14880898,93.3790526 2.48225631,78.4569792 2.48156889,61.9647053 C2.48225631,45.4731203 9.14880898,30.550358 19.9316039,19.7415351 C30.7157737,8.93477916 45.6038122,2.25298642 62.0577826,2.25298642 C78.5124404,2.25298642 93.4004789,8.93477916 104.184649,19.7415351 C114.967444,30.550358 121.633309,45.4724313 121.633996,61.9647053 L123.555322,61.9647053 C123.554634,27.9225628 96.0215931,0.327957656 62.0577826,0.327268669"></path>
        <path id="path-8" d="M72.1126048,0.676584911 C32.4081899,0.677273898 0.222722527,32.9363188 0.222035112,72.7315 C0.222722527,112.525992 32.4081899,144.785037 72.1126048,144.785726 C111.816332,144.785037 144.001112,112.525992 144.0018,72.7315 L142.401497,72.7315 C142.40081,92.1877946 134.535405,109.794849 121.814099,122.546614 C109.092106,135.297002 91.5252102,143.180387 72.1126048,143.181076 C52.6999994,143.180387 35.1324164,135.297002 22.4104231,122.546614 C9.68911733,109.794849 1.82302513,92.1877946 1.82302513,72.7315 C1.82302513,53.2745164 9.68911733,35.666773 22.4104231,22.9156967 C35.1324164,10.1653094 52.6999994,2.28123487 72.1126048,2.28123487 C91.5252102,2.28123487 109.092106,10.1653094 121.814099,22.9156967 C134.535405,35.666773 142.40081,53.2745164 142.401497,72.7315 L144.0018,72.7315 C144.001112,32.9363188 111.816332,0.677273898 72.1126048,0.676584911"></path>
        <path id="path-10" d="M72.1126048,0.676584911 C32.4081899,0.677273898 0.222722527,32.9363188 0.222035112,72.7315 C0.222722527,112.525992 32.4081899,144.785037 72.1126048,144.785726 C111.816332,144.785037 144.001112,112.525992 144.0018,72.7315 L142.401497,72.7315 C142.40081,92.1877946 134.535405,109.794849 121.814099,122.546614 C109.092106,135.297002 91.5252102,143.180387 72.1126048,143.181076 C52.6999994,143.180387 35.1324164,135.297002 22.4104231,122.546614 C9.68911733,109.794849 1.82302513,92.1877946 1.82302513,72.7315 C1.82302513,53.2745164 9.68911733,35.666773 22.4104231,22.9156967 C35.1324164,10.1653094 52.6999994,2.28123487 72.1126048,2.28123487 C91.5252102,2.28123487 109.092106,10.1653094 121.814099,22.9156967 C134.535405,35.666773 142.40081,53.2745164 142.401497,72.7315 L144.0018,72.7315 C144.001112,32.9363188 111.816332,0.677273898 72.1126048,0.676584911"></path>
        <path id="path-12" d="M72.1126048,0.676584911 C32.4081899,0.677273898 0.222722527,32.9363188 0.222035112,72.7315 C0.222722527,112.525992 32.4081899,144.785037 72.1126048,144.785726 C111.816332,144.785037 144.001112,112.525992 144.0018,72.7315 L142.401497,72.7315 C142.40081,92.1877946 134.535405,109.794849 121.814099,122.546614 C109.092106,135.297002 91.5252102,143.180387 72.1126048,143.181076 C52.6999994,143.180387 35.1324164,135.297002 22.4104231,122.546614 C9.68911733,109.794849 1.82302513,92.1877946 1.82302513,72.7315 C1.82302513,53.2745164 9.68911733,35.666773 22.4104231,22.9156967 C35.1324164,10.1653094 52.6999994,2.28123487 72.1126048,2.28123487 C91.5252102,2.28123487 109.092106,10.1653094 121.814099,22.9156967 C134.535405,35.666773 142.40081,53.2745164 142.401497,72.7315 L144.0018,72.7315 C144.001112,32.9363188 111.816332,0.677273898 72.1126048,0.676584911"></path>
        <path d="M134.155952,22.7661866 C134.778062,23.3504473 135.391237,23.9457318 135.9941,24.5499731 C150.306084,38.8953646 159.157243,58.7092433 159.15793,80.5997278 L159.914087,80.5997278 C159.914087,57.9913192 150.559053,37.5725102 135.519096,23.0190447 C135.055778,22.9625478 134.600709,22.8771134 134.155952,22.7661866 M129.327547,17.6139443 C129.584641,17.9501698 129.863731,18.2698596 130.162757,18.5695688 C130.881106,19.2895598 131.711503,19.8944901 132.62714,20.3554222 C131.553398,19.4135774 130.451471,18.4979142 129.327547,17.6139443 M80.0721855,0.575303871 C35.9772496,0.575303871 0.230971509,36.4032998 0.230284094,80.5997278 C0.230971509,124.796156 35.9765622,160.623463 80.0721855,160.623463 C124.167809,160.623463 159.914087,124.796156 159.914087,80.5997278 L159.15793,80.5997278 C159.157243,102.489523 150.306084,122.304091 135.9941,136.649483 C121.681428,150.994185 101.912741,159.865577 80.0721855,159.865577 C58.2323169,159.865577 38.4636304,150.994185 24.150271,136.649483 C9.83828643,122.304091 0.987128236,102.489523 0.987128236,80.5997278 C0.987128236,58.7092433 9.83828643,38.8953646 24.150271,24.5499731 C38.4636304,10.2045816 58.2323169,1.33318921 80.0721855,1.33318921 C97.4974735,1.33318921 113.605674,6.98150194 126.674125,16.5508378 C126.480961,16.1312449 126.312544,15.6985613 126.170937,15.2534759 C113.149918,6.00934175 97.2438173,0.575303871 80.0721855,0.575303871" id="path-13"></path>
        <path d="M134.155952,22.7661866 C134.778062,23.3504473 135.391237,23.9457318 135.9941,24.5499731 C150.306084,38.8953646 159.157243,58.7092433 159.15793,80.5997278 L159.914087,80.5997278 C159.914087,57.9913192 150.559053,37.5725102 135.519096,23.0190447 C135.055778,22.9625478 134.600709,22.8771134 134.155952,22.7661866 M129.327547,17.6139443 C129.584641,17.9501698 129.863731,18.2698596 130.162757,18.5695688 C130.881106,19.2895598 131.711503,19.8944901 132.62714,20.3554222 C131.553398,19.4135774 130.451471,18.4979142 129.327547,17.6139443 M80.0721855,0.575303871 C35.9772496,0.575303871 0.230971509,36.4032998 0.230284094,80.5997278 C0.230971509,124.796156 35.9765622,160.623463 80.0721855,160.623463 C124.167809,160.623463 159.914087,124.796156 159.914087,80.5997278 L159.15793,80.5997278 C159.157243,102.489523 150.306084,122.304091 135.9941,136.649483 C121.681428,150.994185 101.912741,159.865577 80.0721855,159.865577 C58.2323169,159.865577 38.4636304,150.994185 24.150271,136.649483 C9.83828643,122.304091 0.987128236,102.489523 0.987128236,80.5997278 C0.987128236,58.7092433 9.83828643,38.8953646 24.150271,24.5499731 C38.4636304,10.2045816 58.2323169,1.33318921 80.0721855,1.33318921 C97.4974735,1.33318921 113.605674,6.98150194 126.674125,16.5508378 C126.480961,16.1312449 126.312544,15.6985613 126.170937,15.2534759 C113.149918,6.00934175 97.2438173,0.575303871 80.0721855,0.575303871" id="path-15"></path>
        <path d="M134.155952,22.7661866 C134.778062,23.3504473 135.391237,23.9457318 135.9941,24.5499731 C150.306084,38.8953646 159.157243,58.7092433 159.15793,80.5997278 L159.914087,80.5997278 C159.914087,57.9913192 150.559053,37.5725102 135.519096,23.0190447 C135.055778,22.9625478 134.600709,22.8771134 134.155952,22.7661866 M129.327547,17.6139443 C129.584641,17.9501698 129.863731,18.2698596 130.162757,18.5695688 C130.881106,19.2895598 131.711503,19.8944901 132.62714,20.3554222 C131.553398,19.4135774 130.451471,18.4979142 129.327547,17.6139443 M80.0721855,0.575303871 C35.9772496,0.575303871 0.230971509,36.4032998 0.230284094,80.5997278 C0.230971509,124.796156 35.9765622,160.623463 80.0721855,160.623463 C124.167809,160.623463 159.914087,124.796156 159.914087,80.5997278 L159.15793,80.5997278 C159.157243,102.489523 150.306084,122.304091 135.9941,136.649483 C121.681428,150.994185 101.912741,159.865577 80.0721855,159.865577 C58.2323169,159.865577 38.4636304,150.994185 24.150271,136.649483 C9.83828643,122.304091 0.987128236,102.489523 0.987128236,80.5997278 C0.987128236,58.7092433 9.83828643,38.8953646 24.150271,24.5499731 C38.4636304,10.2045816 58.2323169,1.33318921 80.0721855,1.33318921 C97.4974735,1.33318921 113.605674,6.98150194 126.674125,16.5508378 C126.480961,16.1312449 126.312544,15.6985613 126.170937,15.2534759 C113.149918,6.00934175 97.2438173,0.575303871 80.0721855,0.575303871" id="path-17"></path>
    </defs>
    <g id="Page-1" stroke="none" stroke-width="1" fill="none" fill-rule="evenodd" sketch:type="MSPage">
        <g id="Imported-Layers-3-+-Share-A-Tune-2-+-Share-a-Tune-2" sketch:type="MSLayerGroup">
            <g id="Imported-Layers-3-+-Share-A-Tune-2">
                <g id="Imported-Layers-3">
                    <g id="Group-15" transform="translate(38.495252, 38.583254)">
                        <g id="Group-11">
                            <mask id="mask-2" sketch:name="Clip 10" fill="white">
                                <use xlink:href="#path-1"></use>
                            </mask>
                            <g id="Clip-10"></g>
                            <path d="M51.6661269,0.253547095 C23.3377463,0.254236082 0.374641287,23.2691469 0.373953872,51.6615986 C0.374641287,80.0547393 23.3377463,103.06965 51.6661269,103.070339 C79.9945075,103.06965 102.95555,80.0547393 102.956925,51.6615986 L100.069094,51.6615986 C100.068406,65.0637673 94.6536368,77.1830429 85.89253,85.966934 C77.1286736,94.7487581 65.0370401,100.175906 51.6661269,100.176595 C38.2952137,100.175906 26.2028928,94.7487581 17.4390364,85.966934 C8.67724215,77.1830429 3.26247257,65.0637673 3.26178515,51.6615986 C3.26247257,38.2601189 8.67724215,26.1408433 17.4390364,17.3569522 C26.2028928,8.57512811 38.2952137,3.1479801 51.6661269,3.14729112 C65.0370401,3.1479801 77.1286736,8.57512811 85.89253,17.3569522 C94.6536368,26.1408433 100.068406,38.2601189 100.069094,51.6615986 L102.956925,51.6615986 C102.95555,23.2691469 79.9945075,0.254236082 51.6661269,0.253547095" id="Fill-9" fill="url(#linearGradient-3)" sketch:type="MSShapeGroup" mask="url(#mask-2)"></path>
                        </g>
                        <g id="Group-14">
                            <mask id="mask-5" sketch:name="Clip 13" fill="white">
                                <use xlink:href="#path-4"></use>
                            </mask>
                            <g id="Clip-13"></g>
                            <path d="M51.6661269,0.253547095 C23.3377463,0.254236082 0.374641287,23.2691469 0.373953872,51.6615986 C0.374641287,80.0547393 23.3377463,103.06965 51.6661269,103.070339 C79.9945075,103.06965 102.95555,80.0547393 102.956925,51.6615986 L100.069094,51.6615986 C100.068406,65.0637673 94.6536368,77.1830429 85.89253,85.966934 C77.1286736,94.7487581 65.0370401,100.175906 51.6661269,100.176595 C38.2952137,100.175906 26.2028928,94.7487581 17.4390364,85.966934 C8.67724215,77.1830429 3.26247257,65.0637673 3.26178515,51.6615986 C3.26247257,38.2601189 8.67724215,26.1408433 17.4390364,17.3569522 C26.2028928,8.57512811 38.2952137,3.1479801 51.6661269,3.14729112 C65.0370401,3.1479801 77.1286736,8.57512811 85.89253,17.3569522 C94.6536368,26.1408433 100.068406,38.2601189 100.069094,51.6615986 L102.956925,51.6615986 C102.95555,23.2691469 79.9945075,0.254236082 51.6661269,0.253547095" id="Fill-12" fill="#FFFFFF" sketch:type="MSShapeGroup" mask="url(#mask-5)"></path>
                        </g>
                    </g>
                    <path d="M111.436879,90.2448522 L112.881138,90.2448522 C112.879764,77.6680895 102.709456,67.4738427 90.1600036,67.4731537 C77.6119264,67.4738427 67.4423059,77.6680895 67.4416185,90.2448522 C67.4423059,102.822304 77.6126139,113.016551 90.1600036,113.01724 C102.709456,113.016551 112.879764,102.822304 112.881138,90.2448522 L109.993307,90.2448522 C109.99262,95.7388319 107.775706,100.699536 104.184649,104.300869 C100.590842,107.900136 95.6414525,110.122118 90.1600036,110.122807 C84.6799296,110.122118 79.7305401,107.900136 76.1374208,104.300869 C72.5463638,100.699536 70.3294497,95.7388319 70.3287623,90.2448522 C70.3294497,84.7515615 72.5463638,79.7915464 76.1374208,76.1895241 C79.7305401,72.5895687 84.6799296,70.3682757 90.1600036,70.3668977 C95.6414525,70.3682757 100.590842,72.5895687 104.184649,76.1895241 C107.775706,79.7915464 109.99262,84.7515615 109.993307,90.2448522 L111.436879,90.2448522" id="Fill-16" fill="#FFFFFF" sketch:type="MSShapeGroup"></path>
                    <path d="M95.6318287,90.2448522 C95.6318287,87.2167558 93.1825683,84.7618963 90.160691,84.7618963 C87.1401886,84.7618963 84.6909282,87.2167558 84.6909282,90.2448522 C84.6909282,93.2736376 87.1401886,95.7284971 90.160691,95.7284971 C93.1825683,95.7284971 95.6318287,93.2736376 95.6318287,90.2448522" id="Fill-17" fill="#FFFFFF" sketch:type="MSShapeGroup"></path>
                    <path d="M156.919019,21.4619348 L156.053563,21.4619348 C156.052876,24.1021317 154.988069,26.4846477 153.26197,28.2153822 C151.534495,29.9447387 149.158101,31.0126681 146.524613,31.0126681 C143.890438,31.0126681 141.513357,29.9447387 139.78657,28.2153822 C138.06047,26.4846477 136.995664,24.1021317 136.994976,21.4619348 C136.995664,18.8224269 138.06047,16.439911 139.78657,14.7084875 C141.513357,12.9791309 143.890438,11.9118906 146.524613,11.9112016 C149.158101,11.9118906 151.534495,12.9791309 153.26197,14.7084875 C154.988069,16.439911 156.052876,18.8224269 156.053563,21.4619348 L157.785162,21.4619348 C157.784475,15.2279834 152.743659,10.1756442 146.524613,10.1749552 C140.304193,10.1756442 135.263378,15.2279834 135.263378,21.4619348 C135.263378,27.6958862 140.304193,32.7489145 146.524613,32.7496035 C152.743659,32.7489145 157.784475,27.6958862 157.785162,21.4619348 L156.919019,21.4619348" id="Fill-18" fill="#FFFFFF" sketch:type="MSShapeGroup"></path>
                    <g id="Group-21" transform="translate(28.184023, 28.248454)">
                        <mask id="mask-7" sketch:name="Clip 20" fill="white">
                            <use xlink:href="#path-6"></use>
                        </mask>
                        <g id="Clip-20"></g>
                        <path d="M62.0577826,0.327268669 C28.0946595,0.327957656 0.560930808,27.9225628 0.560243393,61.9647053 C0.560930808,96.0075367 28.0939721,123.602142 62.0577826,123.602142 C96.0215931,123.602142 123.554634,96.0075367 123.555322,61.9647053 L121.633996,61.9647053 C121.633996,78.4569792 114.967444,93.3790526 104.184649,104.187875 C93.4004789,114.99532 78.5124404,121.677113 62.0577826,121.677113 C45.6038122,121.677113 30.7157737,114.99532 19.9316039,104.187875 C9.14880898,93.3790526 2.48225631,78.4569792 2.48156889,61.9647053 C2.48225631,45.4731203 9.14880898,30.550358 19.9316039,19.7415351 C30.7157737,8.93477916 45.6038122,2.25298642 62.0577826,2.25298642 C78.5124404,2.25298642 93.4004789,8.93477916 104.184649,19.7415351 C114.967444,30.550358 121.633309,45.4724313 121.633996,61.9647053 L123.555322,61.9647053 C123.554634,27.9225628 96.0215931,0.327957656 62.0577826,0.327268669" id="Fill-19" sketch:type="MSShapeGroup" mask="url(#mask-7)"></path>
                    </g>
                    <g id="Group-24" transform="translate(28.184023, 28.248454)" fill-opacity="0.25" fill="#FFFFFF" sketch:type="MSShapeGroup">
                        <path d="M62.0577826,0.327268669 C28.0946595,0.327957656 0.560930808,27.9225628 0.560243393,61.9647053 C0.560930808,96.0075367 28.0939721,123.602142 62.0577826,123.602142 C96.0215931,123.602142 123.554634,96.0075367 123.555322,61.9647053 L121.633996,61.9647053 C121.633996,78.4569792 114.967444,93.3790526 104.184649,104.187875 C93.4004789,114.99532 78.5124404,121.677113 62.0577826,121.677113 C45.6038122,121.677113 30.7157737,114.99532 19.9316039,104.187875 C9.14880898,93.3790526 2.48225631,78.4569792 2.48156889,61.9647053 C2.48225631,45.4731203 9.14880898,30.550358 19.9316039,19.7415351 C30.7157737,8.93477916 45.6038122,2.25298642 62.0577826,2.25298642 C78.5124404,2.25298642 93.4004789,8.93477916 104.184649,19.7415351 C114.967444,30.550358 121.633309,45.4724313 121.633996,61.9647053 L123.555322,61.9647053 C123.554634,27.9225628 96.0215931,0.327957656 62.0577826,0.327268669" id="Fill-22"></path>
                    </g>
                    <g id="Group-32" transform="translate(17.872795, 17.224667)">
                        <g id="Group-28">
                            <mask id="mask-9" sketch:name="Clip 27" fill="white">
                                <use xlink:href="#path-8"></use>
                            </mask>
                            <g id="Clip-27"></g>
                            <path d="M72.1126048,0.676584911 C32.4081899,0.677273898 0.222722527,32.9363188 0.222035112,72.7315 C0.222722527,112.525992 32.4081899,144.785037 72.1126048,144.785726 C111.816332,144.785037 144.001112,112.525992 144.0018,72.7315 L142.401497,72.7315 C142.40081,92.1877946 134.535405,109.794849 121.814099,122.546614 C109.092106,135.297002 91.5252102,143.180387 72.1126048,143.181076 C52.6999994,143.180387 35.1324164,135.297002 22.4104231,122.546614 C9.68911733,109.794849 1.82302513,92.1877946 1.82302513,72.7315 C1.82302513,53.2745164 9.68911733,35.666773 22.4104231,22.9156967 C35.1324164,10.1653094 52.6999994,2.28123487 72.1126048,2.28123487 C91.5252102,2.28123487 109.092106,10.1653094 121.814099,22.9156967 C134.535405,35.666773 142.40081,53.2745164 142.401497,72.7315 L144.0018,72.7315 C144.001112,32.9363188 111.816332,0.677273898 72.1126048,0.676584911" id="Fill-26" sketch:type="MSShapeGroup" mask="url(#mask-9)"></path>
                        </g>
                        <g id="Group-31">
                            <mask id="mask-11" sketch:name="Clip 30" fill="white">
                                <use xlink:href="#path-10"></use>
                            </mask>
                            <g id="Clip-30"></g>
                            <g id="Fill-29">
                                <use fill="none" sketch:type="MSShapeGroup" mask="url(#mask-11)" xlink:href="#path-12"></use>
                                <use fill-opacity="0.15" fill="#FFFFFF" fill-rule="evenodd" xlink:href="#path-12"></use>
                            </g>
                        </g>
                    </g>
                    <g id="Group-39" transform="translate(9.623813, 9.645813)">
                        <g id="Group-35">
                            <mask id="mask-14" sketch:name="Clip 34" fill="white">
                                <use xlink:href="#path-13"></use>
                            </mask>
                            <g id="Clip-34"></g>
                            <path d="M134.155952,22.7661866 C134.778062,23.3504473 135.391237,23.9457318 135.9941,24.5499731 C150.306084,38.8953646 159.157243,58.7092433 159.15793,80.5997278 L159.914087,80.5997278 C159.914087,57.9913192 150.559053,37.5725102 135.519096,23.0190447 C135.055778,22.9625478 134.600709,22.8771134 134.155952,22.7661866 M129.327547,17.6139443 C129.584641,17.9501698 129.863731,18.2698596 130.162757,18.5695688 C130.881106,19.2895598 131.711503,19.8944901 132.62714,20.3554222 C131.553398,19.4135774 130.451471,18.4979142 129.327547,17.6139443 M80.0721855,0.575303871 C35.9772496,0.575303871 0.230971509,36.4032998 0.230284094,80.5997278 C0.230971509,124.796156 35.9765622,160.623463 80.0721855,160.623463 C124.167809,160.623463 159.914087,124.796156 159.914087,80.5997278 L159.15793,80.5997278 C159.157243,102.489523 150.306084,122.304091 135.9941,136.649483 C121.681428,150.994185 101.912741,159.865577 80.0721855,159.865577 C58.2323169,159.865577 38.4636304,150.994185 24.150271,136.649483 C9.83828643,122.304091 0.987128236,102.489523 0.987128236,80.5997278 C0.987128236,58.7092433 9.83828643,38.8953646 24.150271,24.5499731 C38.4636304,10.2045816 58.2323169,1.33318921 80.0721855,1.33318921 C97.4974735,1.33318921 113.605674,6.98150194 126.674125,16.5508378 C126.480961,16.1312449 126.312544,15.6985613 126.170937,15.2534759 C113.149918,6.00934175 97.2438173,0.575303871 80.0721855,0.575303871" id="Fill-33" sketch:type="MSShapeGroup" mask="url(#mask-14)"></path>
                        </g>
                        <g id="Group-38">
                            <mask id="mask-16" sketch:name="Clip 37" fill="white">
                                <use xlink:href="#path-15"></use>
                            </mask>
                            <g id="Clip-37"></g>
                            <g id="Fill-36">
                                <use fill="none" sketch:type="MSShapeGroup" mask="url(#mask-16)" xlink:href="#path-17"></use>
                                <use fill-opacity="0.11" fill="#FFFFFF" fill-rule="evenodd" xlink:href="#path-17"></use>
                            </g>
                        </g>
                    </g>
                    <path d="M135.794749,24.8992893 C135.936357,25.3443747 136.104774,25.7770583 136.297937,26.1966512 C138.919739,28.1154791 141.417118,30.190707 143.779765,32.412 C144.224522,32.5229268 144.679591,32.6083612 145.142909,32.6648581 C144.20115,31.7533287 143.236707,30.8659139 142.250953,30.0012356 C141.335316,29.5403035 140.504918,28.9353732 139.78657,28.2153822 C139.487544,27.915673 139.208453,27.5959832 138.95136,27.2597577 C137.918175,26.4460644 136.868492,25.6613086 135.794749,24.8992893" id="Fill-40" fill="#FFFFFF" sketch:type="MSShapeGroup"></path>
                    <g id="Group-47" fill-opacity="0.1" fill="#FFFFFF" sketch:type="MSShapeGroup">
                        <g id="Group-46">
                            <path d="M155.194981,28.6646015 C155.041,28.8506279 154.88152,29.0318314 154.715166,29.207523 C169.836238,45.2078605 179.110156,66.8117265 179.110156,90.5893455 L179.830568,90.5893455 C179.830568,66.5960737 170.464535,44.7979134 155.194981,28.6646015 M139.246261,15.2975711 C139.090218,15.4822195 138.941049,15.6723798 138.800129,15.868741 C143.933746,19.2406418 148.69822,23.1299715 153.021375,27.4630087 C153.184979,27.6269876 153.348584,27.7916554 153.510127,27.9570122 C153.674419,27.7799426 153.831837,27.5966721 153.982381,27.4072008 C149.519682,22.8702236 144.581291,18.8072692 139.246261,15.2975711 M90.0390185,0.593217524 C40.4488856,0.593217524 0.248156889,40.8858471 0.248156889,90.5893455 C0.248156889,140.293533 40.4488856,180.585474 90.0390185,180.586163 C139.629839,180.585474 179.82988,140.293533 179.830568,90.5893455 L179.110156,90.5893455 C179.110156,115.243356 169.141261,137.559634 153.021375,153.715682 C136.901488,169.871731 114.636797,179.863416 90.0390185,179.863416 C65.4419276,179.863416 43.1765491,169.871731 27.0566625,153.715682 C10.9381508,137.559634 0.969255441,115.243356 0.968568026,90.5893455 C0.969255441,65.9360245 10.9381508,43.6197462 27.0566625,27.4630087 C43.1765491,11.3069603 65.4419276,1.31527556 90.0390185,1.31527556 C107.41825,1.31527556 123.633687,6.30353906 137.339371,14.9296522 C137.479604,14.731913 137.625336,14.5403747 137.777942,14.3522814 C123.948523,5.634533 107.582542,0.593217524 90.0390185,0.593217524" id="Fill-44"></path>
                        </g>
                    </g>
                    <path d="M153.982381,27.4072008 C153.831837,27.5966721 153.674419,27.7799426 153.510127,27.9570122 C153.916389,28.3704042 154.317152,28.7865521 154.715166,29.207523 C154.88152,29.0318314 155.041,28.8506279 155.194981,28.6646015 C154.795593,28.2422527 154.390018,27.8219708 153.982381,27.4072008 M137.777942,14.3522814 C137.625336,14.5403747 137.479604,14.731913 137.339371,14.9296522 C137.830186,15.2383182 138.316188,15.5504292 138.800129,15.868741 C138.941049,15.6723798 139.090218,15.4822195 139.246261,15.2975711 C138.760259,14.9785702 138.269444,14.6623254 137.777942,14.3522814" id="Fill-48" fill="#FFFFFF" sketch:type="MSShapeGroup"></path>
                    <path d="M115.060932,122.397104 C113.730784,122.397104 112.481063,121.878297 111.541366,120.935763 L108.454872,117.842213 C106.513611,115.897204 106.512924,112.731999 108.454184,110.78699 L120.332719,98.8806111 C121.272416,97.9387664 122.521449,97.4206484 123.850223,97.4206484 C124.807105,97.4206484 125.740615,97.697621 126.538016,98.2095381 L143.348755,81.3596801 L143.348755,56.965418 C141.667338,55.9402058 140.639652,54.1261039 140.639652,52.1349324 L140.639652,41.1421501 C140.639652,39.1502896 141.667338,37.3361877 143.348755,36.3109756 L143.348755,23.4910006 C143.348755,21.8181409 144.293951,20.5083773 145.501052,20.5083773 L147.389382,20.5083773 C148.595795,20.5083773 149.540991,21.8181409 149.540991,23.4910006 L149.540991,36.3116645 C151.222409,37.3368767 152.250095,39.1509786 152.250095,41.1421501 L152.250095,52.1349324 C152.250095,54.1261039 151.222409,55.9395168 149.540991,56.965418 L149.540991,82.6653098 C149.639292,83.6429819 149.300396,84.5986064 148.608169,85.292416 L131.130637,102.809902 C132.392044,104.763179 132.146637,107.338612 130.45972,109.030074 L118.580498,120.935763 C117.640801,121.878297 116.390393,122.397104 115.060932,122.397104" id="Fill-49" fill="#FFFFFF" sketch:type="MSShapeGroup"></path>
                    <path d="M147.389382,21.1973639 C148.197782,21.1973639 148.853576,22.2239541 148.853576,23.4910006 L148.853576,36.7154107 C150.460753,37.5380608 151.562679,39.2095425 151.562679,41.1421501 L151.562679,52.1349324 C151.562679,54.0675401 150.460753,55.7383327 148.853576,56.5616718 L148.853576,82.7025151 C148.938128,83.4514436 148.694783,84.2306876 148.122166,84.8053024 L130.225999,102.741692 C131.642762,104.431088 131.558897,106.952779 129.973718,108.54296 L118.094495,120.44865 C117.256536,121.288525 116.159422,121.708118 115.060932,121.708118 C113.962443,121.708118 112.865328,121.288525 112.027369,120.44865 L108.940187,117.3551 C107.264956,115.676039 107.264956,112.953164 108.940187,111.274103 L120.818722,99.3677247 C121.656681,98.528539 122.753108,98.1096351 123.850223,98.1096351 C124.831164,98.1096351 125.812106,98.4444826 126.607445,99.1148666 L144.03617,81.6456096 L144.03617,56.5616718 C142.428306,55.7390217 141.327067,54.0675401 141.327067,52.1349324 L141.327067,41.1421501 C141.327067,39.2088535 142.428306,37.5373718 144.03617,36.7147218 L144.03617,23.4910006 C144.03617,22.2239541 144.69059,21.1973639 145.501052,21.1973639 L147.389382,21.1973639 M147.389382,19.8193906 L145.501052,19.8193906 C143.908999,19.8193906 142.66134,21.4316194 142.66134,23.4910006 L142.66134,35.9375448 C140.971673,37.116401 139.952237,39.0407408 139.952237,41.1421501 L139.952237,52.1349324 C139.952237,54.2356528 140.971673,56.1606816 142.66134,57.3388488 L142.66134,81.0744396 L126.422531,97.3503717 C125.632003,96.9466256 124.750049,96.7316617 123.850223,96.7316617 C122.338597,96.7316617 120.916335,97.3214343 119.846717,98.3928086 L107.968182,110.299876 C105.759517,112.51359 105.759517,116.115613 107.968869,118.329327 L111.055364,121.422877 C112.124982,122.495629 113.547931,123.086091 115.060932,123.086091 C116.573933,123.086091 117.996195,122.495629 119.0665,121.422877 L130.945723,109.517187 C132.728878,107.728578 133.096645,105.073223 131.989906,102.922896 L149.094171,85.7795296 C149.925256,84.9472337 150.335643,83.8042048 150.228407,82.6329275 L150.228407,57.3388488 C151.918073,56.1599926 152.93751,54.2349638 152.93751,52.1349324 L152.93751,41.1421501 C152.93751,39.0414297 151.918073,37.116401 150.228407,35.9382338 L150.228407,23.4910006 C150.228407,21.4316194 148.981435,19.8193906 147.389382,19.8193906" id="Fill-50" fill="#CB2253" sketch:type="MSShapeGroup"></path>
                    <path d="M151.144044,21.8959964 C151.144044,24.5334374 149.010994,26.671363 146.378881,26.671363 C143.748143,26.671363 141.615094,24.5334374 141.615094,21.8959964 C141.615094,19.2585554 143.748143,17.1213188 146.378881,17.1213188 C149.010994,17.1213188 151.144044,19.2585554 151.144044,21.8959964" id="Fill-51" fill="#FFFFFF" sketch:type="MSShapeGroup"></path>
                </g>
            </g>
            <path d="M17.079321,203.05783 C16.7595272,202.520867 16.3080604,202.127409 15.7249071,201.877443 C15.1417537,201.627478 14.5021757,201.502497 13.806154,201.502497 C13.3923032,201.502497 12.9831614,201.548786 12.5787164,201.641366 C12.1742713,201.733946 11.8027517,201.882071 11.4641465,202.085747 C11.1255414,202.289423 10.8386718,202.553271 10.6035294,202.877301 C10.3683869,203.20133 10.2226007,203.585531 10.1661665,204.029914 C10.0721095,204.696489 10.232004,205.20567 10.6458548,205.557474 C11.0597056,205.909277 11.6005252,206.214786 12.2683298,206.47401 C12.9361345,206.733233 13.6603625,206.983195 14.4410355,207.223903 C15.2217086,207.46461 15.936531,207.797893 16.5855243,208.22376 C17.2345175,208.649627 17.7424177,209.214356 18.1092399,209.917963 C18.4760622,210.621569 18.5748206,211.556612 18.405518,212.723118 C18.2550268,213.778528 17.9258323,214.699684 17.4179245,215.486612 C16.9100167,216.273541 16.2845471,216.926219 15.5414968,217.444666 C14.7984466,217.963114 13.9660547,218.351943 13.0442961,218.611167 C12.1225376,218.87039 11.1725762,219 10.1943835,219 C8.95283116,219 7.78654194,218.796327 6.69548081,218.388976 C5.60441968,217.981625 4.71089164,217.296544 4.01486989,216.333714 L7.06230125,213.778523 C7.41971783,214.426582 7.92291519,214.931134 8.57190845,215.292196 C9.22090171,215.653257 9.94042692,215.833785 10.7305057,215.833785 C11.1443564,215.833785 11.5629038,215.778238 11.9861603,215.667142 C12.4094167,215.556046 12.8044502,215.389405 13.1712725,215.167214 C13.5380947,214.945022 13.8531809,214.662658 14.1165405,214.320112 C14.3799001,213.977567 14.5492001,213.584108 14.6244457,213.139725 C14.7185027,212.417602 14.5586082,211.862132 14.1447575,211.473296 C13.7309067,211.084461 13.1900871,210.755807 12.5222824,210.487326 C11.8544778,210.218844 11.1302498,209.964254 10.3495767,209.723546 C9.5689037,209.482838 8.85878405,209.154185 8.21919649,208.737575 C7.57960893,208.320966 7.07170878,207.765495 6.69548081,207.071147 C6.31925283,206.376798 6.21579169,205.446384 6.38509428,204.279878 C6.53558547,203.2615 6.87418557,202.382005 7.40090473,201.641366 C7.9276239,200.900727 8.57190464,200.28508 9.33376629,199.794407 C10.0956279,199.303734 10.9374254,198.938049 11.8591839,198.697342 C12.7809425,198.456634 13.7026872,198.336282 14.6244457,198.336282 C15.6778841,198.336282 16.679576,198.493665 17.6295517,198.808437 C18.5795273,199.123208 19.3837025,199.641648 20.0421015,200.36377 L17.079321,203.05783 Z M26.5602186,207.029486 L26.6166525,207.029486 C26.9552577,206.474007 27.4913745,205.969454 28.225019,205.515813 C28.9586636,205.062172 29.8521916,204.835355 30.90563,204.835355 C31.8085771,204.835355 32.556319,204.98348 33.148878,205.279736 C33.7414371,205.575991 34.1976067,205.964821 34.5174005,206.446236 C34.8371942,206.927651 35.034711,207.483122 35.1099566,208.112665 C35.1852021,208.742208 35.1757966,209.399515 35.0817396,210.084606 L33.8966274,218.500071 L30.5105926,218.500071 L31.4699691,211.751034 C31.5264033,211.380715 31.5640255,210.968741 31.5828369,210.5151 C31.6016483,210.061458 31.5593233,209.635597 31.4558606,209.237504 C31.3523979,208.839411 31.1501784,208.506128 30.849196,208.237647 C30.5482137,207.969165 30.1061524,207.834927 29.5229991,207.834927 C28.9586571,207.834927 28.4695681,207.927505 28.0557173,208.112665 C27.6418665,208.297824 27.2891581,208.547786 26.9975814,208.862558 C26.7060047,209.177329 26.4708658,209.538385 26.2921575,209.945736 C26.1134492,210.353088 25.9958797,210.778949 25.9394455,211.223332 L24.9236351,218.500071 L21.5376002,218.500071 L24.5285977,197.503067 L27.9146325,197.503067 L26.5602186,207.029486 Z M47.0175124,216.667 L46.9328616,216.667 C46.3308968,217.426154 45.6301827,217.976996 44.8306983,218.319542 C44.0312138,218.662087 43.1800108,218.833357 42.2770636,218.833357 C41.6562875,218.833357 41.0590345,218.750037 40.4852869,218.583393 C39.9115392,218.416749 39.4177474,218.166787 39.0038966,217.8335 C38.5900459,217.500212 38.2796624,217.083609 38.072737,216.583678 C37.8658117,216.083747 37.8093783,215.500503 37.9034353,214.833928 C38.0539265,213.760002 38.4583655,212.912909 39.1167645,212.292624 C39.7751634,211.672339 40.5558248,211.204818 41.4587719,210.890046 C42.361719,210.575275 43.3163832,210.38086 44.322793,210.306796 C45.3292029,210.232732 46.2556504,210.195701 47.1021633,210.195701 L47.948672,210.195701 L47.976889,209.834641 C48.1085688,209.001423 47.911052,208.376518 47.3843329,207.959909 C46.8576137,207.543299 46.1427913,207.334998 45.2398441,207.334998 C44.525011,207.334998 43.8384052,207.459979 43.1800063,207.709944 C42.5216073,207.95991 41.9384627,208.297821 41.4305549,208.723689 L39.9068393,206.973938 C40.7533522,206.214784 41.7080164,205.668571 42.7708604,205.335283 C43.8337044,205.001996 44.9012353,204.835355 45.973485,204.835355 C46.9328664,204.835355 47.727636,204.94182 48.3578179,205.154753 C48.9879997,205.367687 49.4958999,205.640794 49.8815336,205.974081 C50.2671672,206.307368 50.5446312,206.691569 50.7139338,207.126694 C50.8832364,207.56182 50.9866975,208.001567 51.0243203,208.44595 C51.0619431,208.890334 51.0572403,209.320824 51.0102119,209.737433 C50.9631834,210.154042 50.9208583,210.519727 50.8832355,210.834499 L49.8109912,218.500071 L46.7635598,218.500071 L47.0175124,216.667 Z M47.4125498,212.528701 L46.7071259,212.528701 C46.2368409,212.528701 45.7054269,212.547217 45.1128678,212.584249 C44.5203088,212.621281 43.9559753,212.70923 43.4198504,212.8481 C42.8837255,212.98697 42.4181504,213.190642 42.023111,213.459124 C41.6280717,213.727606 41.3929327,214.102548 41.3176871,214.583963 C41.2800643,214.898735 41.3176865,215.162584 41.4305549,215.375517 C41.5434233,215.588451 41.7033178,215.768979 41.9102432,215.917107 C42.1171686,216.065234 42.3523075,216.1717 42.6156671,216.236505 C42.8790267,216.301311 43.1517879,216.333714 43.4339589,216.333714 C44.6002656,216.333714 45.5031992,216.060607 46.1427868,215.514386 C46.7823743,214.968165 47.1680022,214.222909 47.299682,213.278594 L47.4125498,212.528701 Z M55.9058539,205.16864 L59.2918887,205.16864 L58.9815022,207.27945 L59.0379361,207.27945 C59.5270325,206.50178 60.1525021,205.90002 60.9143638,205.474152 C61.6762254,205.048285 62.5086173,204.835355 63.4115645,204.835355 C63.6184899,204.835355 63.8160066,204.85387 64.0041206,204.890902 C64.1922346,204.927934 64.3897513,204.974223 64.5966767,205.029771 L64.1169884,208.251534 C63.8536288,208.17747 63.5902732,208.117294 63.3269136,208.071004 C63.063554,208.024714 62.8001984,208.001569 62.5368388,208.001569 C61.7467601,208.001569 61.088371,208.145066 60.5616518,208.432064 C60.0349326,208.719061 59.6163853,209.047715 59.3059972,209.418034 C58.9956091,209.788353 58.7745785,210.158667 58.6428987,210.528987 C58.5112189,210.899306 58.4359745,211.177041 58.4171631,211.362201 L57.4013526,218.500071 L54.0153178,218.500071 L55.9058539,205.16864 Z M68.5188337,213.000856 C68.5000223,213.500787 68.570564,213.945164 68.7304609,214.333999 C68.8903578,214.722834 69.1113884,215.051488 69.3935594,215.31997 C69.6757303,215.588451 70.0143304,215.796753 70.4093698,215.94488 C70.8044092,216.093008 71.2370649,216.167071 71.7073498,216.167071 C72.5538628,216.167071 73.2921991,215.995801 73.922381,215.653255 C74.5525628,215.31071 75.1121936,214.88022 75.6012899,214.361773 L77.7739956,216.167071 C76.8522371,217.129901 75.874059,217.814982 74.8394321,218.222333 C73.8048051,218.629685 72.7513826,218.833357 71.6791329,218.833357 C70.6633174,218.833357 69.7274643,218.666716 68.8715457,218.333428 C68.015627,218.000141 67.3008046,217.527991 66.7270569,216.916964 C66.1533093,216.305937 65.7347619,215.569938 65.4714023,214.708946 C65.2080428,213.847953 65.1516094,212.889766 65.3021006,211.834356 C65.4525918,210.778946 65.7817863,209.820759 66.2896941,208.959766 C66.7976019,208.098773 67.4277743,207.362775 68.1802302,206.751748 C68.9326862,206.140721 69.7838892,205.668571 70.7338648,205.335283 C71.6838405,205.001996 72.6667213,204.835355 73.6825368,204.835355 C75.5824881,204.835355 77.0215385,205.460259 77.9997313,206.710087 C78.977924,207.959915 79.3071185,209.751308 78.9873248,212.08432 L78.84624,213.000856 L68.5188337,213.000856 Z M75.8270256,210.501213 C75.9587054,209.519866 75.7611886,208.746836 75.2344695,208.182099 C74.7077503,207.617362 73.9082779,207.334998 72.8360281,207.334998 C71.8202126,207.334998 70.9737123,207.621991 70.296502,208.195986 C69.6192916,208.769981 69.1490137,209.538382 68.8856541,210.501213 L75.8270256,210.501213 Z M99.4446186,216.667 L99.3599678,216.667 C98.758003,217.426154 98.0572889,217.976996 97.2578045,218.319542 C96.45832,218.662087 95.607117,218.833357 94.7041698,218.833357 C94.0833937,218.833357 93.4861407,218.750037 92.9123931,218.583393 C92.3386454,218.416749 91.8448536,218.166787 91.4310028,217.8335 C91.017152,217.500212 90.7067686,217.083609 90.4998432,216.583678 C90.2929179,216.083747 90.2364845,215.500503 90.3305415,214.833928 C90.4810327,213.760002 90.8854717,212.912909 91.5438706,212.292624 C92.2022696,211.672339 92.9829309,211.204818 93.8858781,210.890046 C94.7888252,210.575275 95.7434894,210.38086 96.7498992,210.306796 C97.7563091,210.232732 98.6827566,210.195701 99.5292695,210.195701 L100.375778,210.195701 L100.403995,209.834641 C100.535675,209.001423 100.338158,208.376518 99.8114391,207.959909 C99.2847199,207.543299 98.5698975,207.334998 97.6669503,207.334998 C96.9521172,207.334998 96.2655114,207.459979 95.6071125,207.709944 C94.9487135,207.95991 94.3655689,208.297821 93.8576611,208.723689 L92.3339454,206.973938 C93.1804584,206.214784 94.1351226,205.668571 95.1979666,205.335283 C96.2608106,205.001996 97.3283415,204.835355 98.4005912,204.835355 C99.3599725,204.835355 100.154742,204.94182 100.784924,205.154753 C101.415106,205.367687 101.923006,205.640794 102.30864,205.974081 C102.694273,206.307368 102.971737,206.691569 103.14104,207.126694 C103.310343,207.56182 103.413804,208.001567 103.451427,208.44595 C103.489049,208.890334 103.484347,209.320824 103.437318,209.737433 C103.39029,210.154042 103.347965,210.519727 103.310342,210.834499 L102.238097,218.500071 L99.190666,218.500071 L99.4446186,216.667 Z M99.839656,212.528701 L99.1342321,212.528701 C98.6639471,212.528701 98.1325331,212.547217 97.539974,212.584249 C96.947415,212.621281 96.3830815,212.70923 95.8469566,212.8481 C95.3108317,212.98697 94.8452566,213.190642 94.4502172,213.459124 C94.0551779,213.727606 93.8200389,214.102548 93.7447933,214.583963 C93.7071705,214.898735 93.7447927,215.162584 93.8576611,215.375517 C93.9705295,215.588451 94.130424,215.768979 94.3373494,215.917107 C94.5442748,216.065234 94.7794137,216.1717 95.0427733,216.236505 C95.3061329,216.301311 95.5788941,216.333714 95.8610651,216.333714 C97.0273718,216.333714 97.9303054,216.060607 98.569893,215.514386 C99.2094805,214.968165 99.5951084,214.222909 99.7267882,213.278594 L99.839656,212.528701 Z M122.102835,202.002425 L115.979755,202.002425 L116.431227,198.836211 L132.232723,198.836211 L131.781251,202.002425 L125.658172,202.002425 L123.316164,218.500071 L119.760828,218.500071 L122.102835,202.002425 Z M141.882922,218.500071 L138.666189,218.500071 L138.948358,216.361488 L138.891925,216.361488 C138.496885,217.028062 137.932552,217.606678 137.198907,218.097351 C136.465263,218.588024 135.534112,218.833357 134.405428,218.833357 C133.502481,218.833357 132.754739,218.689861 132.16218,218.402863 C131.569621,218.115865 131.113452,217.727036 130.793658,217.236363 C130.473864,216.74569 130.271645,216.18559 130.186993,215.556047 C130.102342,214.926504 130.107045,214.269197 130.201102,213.584106 L131.414431,205.16864 L134.800466,205.16864 L133.841089,211.917677 C133.784655,212.287997 133.74233,212.699971 133.714113,213.153612 C133.685896,213.607253 133.723518,214.033114 133.826981,214.431207 C133.930443,214.829301 134.12796,215.162583 134.419537,215.431065 C134.711114,215.699546 135.157878,215.833785 135.759842,215.833785 C136.324184,215.833785 136.813273,215.741207 137.227124,215.556047 C137.640975,215.370887 137.993683,215.120925 138.28526,214.806154 C138.576837,214.491383 138.811976,214.130327 138.990684,213.722975 C139.169392,213.315624 139.286962,212.889763 139.343396,212.44538 L140.387423,205.16864 L143.773458,205.16864 L141.882922,218.500071 Z M148.175303,205.16864 L151.392037,205.16864 L151.08165,207.307224 L151.138084,207.307224 C151.551935,206.640649 152.125674,206.062034 152.859318,205.571361 C153.592963,205.080687 154.524113,204.835355 155.652797,204.835355 C156.555744,204.835355 157.303486,204.98348 157.896045,205.279736 C158.488604,205.575991 158.944774,205.964821 159.264568,206.446236 C159.584361,206.927651 159.781878,207.483122 159.857124,208.112665 C159.932369,208.742208 159.922964,209.399515 159.828907,210.084606 L158.643795,218.500071 L155.25776,218.500071 L156.217136,211.751034 C156.27357,211.380715 156.311193,210.968741 156.330004,210.5151 C156.348815,210.061458 156.30649,209.635597 156.203028,209.237504 C156.099565,208.839411 155.897346,208.506128 155.596363,208.237647 C155.295381,207.969165 154.85332,207.834927 154.270166,207.834927 C153.705824,207.834927 153.216735,207.927505 152.802884,208.112665 C152.389034,208.297824 152.036325,208.547786 151.744749,208.862558 C151.453172,209.177329 151.218033,209.538385 151.039325,209.945736 C150.860616,210.353088 150.743047,210.778949 150.686613,211.223332 L149.670802,218.500071 L146.284767,218.500071 L148.175303,205.16864 Z M166.516326,213.000856 C166.497514,213.500787 166.568056,213.945164 166.727953,214.333999 C166.88785,214.722834 167.10888,215.051488 167.391051,215.31997 C167.673222,215.588451 168.011822,215.796753 168.406862,215.94488 C168.801901,216.093008 169.234557,216.167071 169.704842,216.167071 C170.551355,216.167071 171.289691,215.995801 171.919873,215.653255 C172.550055,215.31071 173.109685,214.88022 173.598782,214.361773 L175.771487,216.167071 C174.849729,217.129901 173.871551,217.814982 172.836924,218.222333 C171.802297,218.629685 170.748874,218.833357 169.676625,218.833357 C168.660809,218.833357 167.724956,218.666716 166.869037,218.333428 C166.013119,218.000141 165.298296,217.527991 164.724549,216.916964 C164.150801,216.305937 163.732254,215.569938 163.468894,214.708946 C163.205535,213.847953 163.149101,212.889766 163.299592,211.834356 C163.450084,210.778946 163.779278,209.820759 164.287186,208.959766 C164.795094,208.098773 165.425266,207.362775 166.177722,206.751748 C166.930178,206.140721 167.781381,205.668571 168.731357,205.335283 C169.681332,205.001996 170.664213,204.835355 171.680029,204.835355 C173.57998,204.835355 175.01903,205.460259 175.997223,206.710087 C176.975416,207.959915 177.30461,209.751308 176.984817,212.08432 L176.843732,213.000856 L166.516326,213.000856 Z M173.824517,210.501213 C173.956197,209.519866 173.75868,208.746836 173.231961,208.182099 C172.705242,207.617362 171.90577,207.334998 170.83352,207.334998 C169.817704,207.334998 168.971204,207.621991 168.293994,208.195986 C167.616783,208.769981 167.146506,209.538382 166.883146,210.501213 L173.824517,210.501213 Z" id="Share-a-Tune-2" opacity="0.85" fill="#FFFFFF" sketch:type="MSShapeGroup"></path>
        </g>
    </g>
</svg>